
<svg height="401.2417950435365" version="1.1" width="468.0" xmlns="http://www.w3.org/2000/svg">
<rect fill="#FFFFFF" fill-opacity="0.6000000238418579" height="29.564634963161424" stroke="#FFFFFF" stroke-width="2" width="226.8720696584059" x="96.0" y="62.620897521768256"/> 
<text fill="#000000" font-size="15.399999999999999" x="102.0" y="80.62089752176826">Gemeenschappelijke koorde</text>
<rect fill="#FFFFFF" fill-opacity="0.6000000238418579" height="29.564634963161424" stroke="#FFFFFF" stroke-width="2" width="302.8847957133289" x="96.0" y="96.62089752176826"/> 
<text fill="#000000" font-size="15.399999999999999" x="102.0" y="114.62089752176826">Loodrecht op lijn tussen middelpunten</text>
<rect fill="#FFFFFF" fill-opacity="0.6000000238418579" height="29.56463496316141" stroke="#FFFFFF" stroke-width="2" width="74.06563965170795" x="96.0" y="130.62089752176826"/> 
<text fill="#000000" font-size="15.399999999999999" x="102.0" y="148.62089752176826">AS = SB</text>
<path d=" M 163.0 163.62089752176826 L 169.0 169.62089752176826 M 163.0 169.62089752176826 L 169.0 163.62089752176826" fill="none" stroke="#E50000" stroke-width="1.375"/> 
<path d=" M 231.0 129.62089752176826 L 237.0 135.62089752176826 M 231.0 135.62089752176826 L 237.0 129.62089752176826" fill="none" stroke="#E50000" stroke-width="1.375"/> 
<path d=" M 163.0 231.62089752176826 L 169.0 237.62089752176826 M 163.0 237.62089752176826 L 169.0 231.62089752176826" fill="none" stroke="#E50000" stroke-width="1.375"/> 
<text fill="#000000" font-size="11.2" x="173.0" y="250.62089752176826">M</text>
<path d=" M 333.0 231.62089752176826 L 339.0 237.62089752176826 M 333.0 237.62089752176826 L 339.0 231.62089752176826" fill="none" stroke="#E50000" stroke-width="1.375"/> 
<text fill="#000000" font-size="11.2" x="343.0" y="250.62089752176826">N</text>
<circle cx="166.0" cy="234.62089752176826" fill="none" r="68.0" stroke="#000000" stroke-dasharray="1 6" stroke-dashoffset="0.0" stroke-width="1"/> 
<polyline fill="none" points="0,234.62089752176826 468.0,234.62089752176826" stroke="#000000" stroke-dasharray="1 6" stroke-dashoffset="0.0" stroke-width="1"/> 
<circle cx="336.0" cy="234.62089752176826" fill="none" r="144.2497833620557" stroke="#000000" stroke-dasharray="1 6" stroke-dashoffset="0.0" stroke-width="1"/> 
<rect fill="#E50000" height="6.0" width="6.0" x="200.40000000000003" y="288.4120940226345"/> 
<text fill="#000000" font-size="11.2" x="210.40000000000003" y="307.4120940226345">B</text>
<rect fill="#E50000" height="6.0" width="6.0" x="200.40000000000003" y="174.82970102090204"/> 
<text fill="#000000" font-size="11.2" x="210.40000000000003" y="193.82970102090204">A</text>
<polyline fill="none" points="203.40000000000003,177.82970102090204 203.40000000000003,291.4120940226345" stroke="#000000" stroke-dashoffset="0.0" stroke-width="1"/> 
<rect fill="#E50000" height="6.0" width="6.0" x="200.4" y="231.62089752176826"/> 
<text fill="#000000" font-size="11.2" x="210.4" y="250.62089752176826">S</text></svg>