
<svg height="401.2417950435365" version="1.1" width="468.0" xmlns="http://www.w3.org/2000/svg">
<rect fill="#FFFFFF" fill-opacity="0.6000000238418579" height="29.564634963161424" stroke="#FFFFFF" stroke-width="2" width="190.43871399866043" x="96.0" y="62.620897521768256"/> 
<text fill="#000000" font-size="15.399999999999999" x="102.0" y="80.62089752176826">Congruente driehoeken</text>
<rect fill="#FFFFFF" fill-opacity="0.6000000238418579" height="29.564634963161424" stroke="#FFFFFF" stroke-width="2" width="266.0462156731413" x="96.0" y="96.62089752176826"/> 
<text fill="#000000" font-size="15.399999999999999" x="102.0" y="114.62089752176826">Twee zijden en overstaande hoek</text>
<rect fill="#FFFFFF" fill-opacity="0.6000000238418579" height="29.56463496316141" stroke="#FFFFFF" stroke-width="2" width="241.69591426657735" x="96.0" y="130.62089752176826"/> 
<text fill="#000000" font-size="15.399999999999999" x="102.0" y="148.62089752176826">Mits andere overstaande hoek</text>
<rect fill="#FFFFFF" fill-opacity="0.6000000238418579" height="29.56463496316141" stroke="#FFFFFF" stroke-width="2" width="106.50569323509711" x="96.0" y="164.62089752176826"/> 
<text fill="#000000" font-size="15.399999999999999" x="102.0" y="182.62089752176826">Gelijksoortig</text>
<path d=" M 197.0 197.62089752176826 L 203.0 203.62089752176826 M 197.0 203.62089752176826 L 203.0 197.62089752176826" fill="none" stroke="#E50000" stroke-width="1.375"/> 
<text fill="#000000" font-size="11.2" x="207.0" y="216.62089752176826">A</text>
<path d=" M 320.76 106.84089752176826 L 326.76 112.84089752176826 M 320.76 112.84089752176826 L 326.76 106.84089752176826" fill="none" stroke="#E50000" stroke-width="1.375"/> 
<text fill="#000000" font-size="11.2" x="330.76" y="125.84089752176826">B</text>
<path d=" M 333.0 197.62089752176826 L 339.0 203.62089752176826 M 333.0 203.62089752176826 L 339.0 197.62089752176826" fill="none" stroke="#E50000" stroke-width="1.375"/> 
<text fill="#000000" font-size="11.2" x="343.0" y="216.62089752176826">C</text>
<path d=" M 367.0 197.62089752176826 L 373.0 203.62089752176826 M 367.0 203.62089752176826 L 373.0 197.62089752176826" fill="none" stroke="#E50000" stroke-width="1.375"/> 
<path d=" M 129.0 197.62089752176826 L 135.0 203.62089752176826 M 129.0 203.62089752176826 L 135.0 197.62089752176826" fill="none" stroke="#E50000" stroke-width="1.375"/> 
<polyline fill="none" points="200.0,200.62089752176826 336.0,200.62089752176826" stroke="#000000" stroke-dashoffset="0.0" stroke-width="3"/> 
<polyline fill="none" points="323.76,109.84089752176826 336.0,200.62089752176826" stroke="#000000" stroke-dashoffset="0.0" stroke-width="1"/> 
<polyline fill="none" points="200.0,200.62089752176826 323.76,109.84089752176826" stroke="#000000" stroke-dashoffset="0.0" stroke-width="3"/> 
<polyline fill="none" points="0,200.62089752176826 468.0,200.62089752176826" stroke="#000000" stroke-dasharray="1 6" stroke-dashoffset="0.0" stroke-width="1"/> 
<polyline fill="none" points="200.0,200.62089752176826 336.0,200.62089752176826" stroke="#000000" stroke-dashoffset="0.0" stroke-width="3"/> 
<polyline fill="none" points="323.76,291.40089752176823 336.0,200.62089752176826" stroke="#000000" stroke-dashoffset="0.0" stroke-width="1"/> 
<polyline fill="none" points="200.0,200.62089752176826 323.76,291.40089752176823" stroke="#000000" stroke-dashoffset="0.0" stroke-width="3"/> 
<rect fill="#E50000" height="6.0" width="6.0" x="197.0" y="197.62089752176826"/> 
<text fill="#000000" font-size="11.2" x="207.0" y="216.62089752176826">P</text>
<rect fill="#E50000" height="6.0" width="6.0" x="320.76" y="288.40089752176823"/> 
<text fill="#000000" font-size="11.2" x="330.76" y="307.40089752176823">Q</text>
<rect fill="#E50000" height="6.0" width="6.0" x="333.0" y="197.62089752176826"/> 
<text fill="#000000" font-size="11.2" x="343.0" y="216.62089752176826">R</text>
<path d=" M 311.66498153175513 118.71279293666217 A 15 15 0 0 0 325.7643350414695 124.70638241266695" fill="none" stroke="#000000" stroke-width="1"/> 
<text fill="#000000" font-size="11.2" x="300.34205268069405" y="147.05135763504018">61°</text>
<path d=" M 325.7643350414695 276.5354126308696 A 15 15 0 0 0 311.66498153175513 282.5290021068744" fill="none" stroke="#000000" stroke-width="1"/> 
<text fill="#000000" font-size="11.2" x="300.34205268069405" y="264.19043740849634">61°</text>
<circle cx="200.0" cy="200.62089752176826" fill="none" r="136.0" stroke="#15B01A" stroke-dashoffset="0.0" stroke-width="1"/> 
<rect fill="#E50000" height="6.0" width="6.0" x="328.14345939243645" y="233.6402403611978"/> 
<text fill="#000000" font-size="11.2" x="338.14345939243645" y="252.6402403611978">S</text>
<polyline fill="none" points="0,145.68969011531348 468.0,274.2287154464177" stroke="#000000" stroke-dashoffset="0.0" stroke-width="1"/> </svg>