
<svg height="401.2417950435365" version="1.1" width="468.0" xmlns="http://www.w3.org/2000/svg">
<rect fill="#FFFFFF" fill-opacity="0.6000000238418579" height="29.564634963161424" stroke="#FFFFFF" stroke-width="2" width="294.36771600803746" x="79.0" y="62.620897521768256"/> 
<text fill="#000000" font-size="15.399999999999999" x="85.0" y="80.62089752176826">Congruente rechthoekige driehoeken</text>
<rect fill="#FFFFFF" fill-opacity="0.6000000238418579" height="29.564634963161424" stroke="#FFFFFF" stroke-width="2" width="294.2277294038847" x="79.0" y="96.62089752176826"/> 
<text fill="#000000" font-size="15.399999999999999" x="85.0" y="114.62089752176826">Gelijke schuine en rechthoekige zijde</text>
<rect fill="#FFFFFF" fill-opacity="0.6000000238418579" height="29.56463496316141" stroke="#FFFFFF" stroke-width="2" width="181.0154052243804" x="79.0" y="130.62089752176826"/> 
<text fill="#000000" font-size="15.399999999999999" x="85.0" y="148.62089752176826">Gevolg van stelling 18</text>
<path d=" M 163.0 265.62089752176826 L 169.0 271.62089752176826 M 163.0 271.62089752176826 L 169.0 265.62089752176826" fill="none" stroke="#E50000" stroke-width="1.375"/> 
<path d=" M 231.0 163.62089752176826 L 237.0 169.62089752176826 M 231.0 169.62089752176826 L 237.0 163.62089752176826" fill="none" stroke="#E50000" stroke-width="1.375"/> 
<text fill="#000000" font-size="11.2" x="241.0" y="182.62089752176826">B</text>
<path d=" M 333.0 231.62089752176826 L 339.0 237.62089752176826 M 333.0 237.62089752176826 L 339.0 231.62089752176826" fill="none" stroke="#E50000" stroke-width="1.375"/> 
<text fill="#000000" font-size="11.2" x="343.0" y="250.62089752176826">C</text>
<path d=" M 163.0 231.62089752176826 L 169.0 237.62089752176826 M 163.0 237.62089752176826 L 169.0 231.62089752176826" fill="none" stroke="#E50000" stroke-width="1.375"/> 
<path d=" M 367.0 231.62089752176826 L 373.0 237.62089752176826 M 367.0 237.62089752176826 L 373.0 231.62089752176826" fill="none" stroke="#E50000" stroke-width="1.375"/> 
<polyline fill="none" points="234.0,166.62089752176826 336.0,234.62089752176826" stroke="#000000" stroke-dashoffset="0.0" stroke-width="3"/> 
<rect fill="#E50000" height="6.0" width="6.0" x="282.0" y="197.62089752176826"/> 
<polyline fill="none" points="0,363.47804037891115 468.0,96.04946895033973" stroke="#000000" stroke-dasharray="1 6" stroke-dashoffset="0.0" stroke-width="1"/> 
<rect fill="#E50000" height="6.0" width="6.0" x="228.781582135505" y="228.0314220157654"/> 
<text fill="#000000" font-size="11.2" x="238.781582135505" y="247.0314220157654">A</text>
<path d=" M 241.77565620072733 231.3756364530728 L 242.1198706380347 221.38156238785047 L 232.1257965728124 221.03734795054308" fill="none" stroke="#000000" stroke-width="1"/> 
<text fill="#000000" font-size="11.2" x="247.64215567590136" y="212.14923788437613">90°</text>
<polyline fill="none" points="231.781582135505,231.0314220157654 336.0,234.62089752176826" stroke="#000000" stroke-dashoffset="0.0" stroke-width="3"/> 
<polyline fill="none" points="231.781582135505,231.0314220157654 234.0,166.62089752176826" stroke="#000000" stroke-dashoffset="0.0" stroke-width="1"/> 
<polyline fill="none" points="0,234.62089752176826 468.0,234.62089752176826" stroke="#000000" stroke-dasharray="1 6" stroke-dashoffset="0.0" stroke-width="1"/> 
<polyline fill="none" points="234.0,302.62089752176826 336.0,234.62089752176826" stroke="#000000" stroke-dashoffset="0.0" stroke-width="3"/> 
<polyline fill="none" points="231.781582135505,238.2103730277711 336.0,234.62089752176826" stroke="#000000" stroke-dashoffset="0.0" stroke-width="3"/> 
<polyline fill="none" points="231.781582135505,238.2103730277711 234.0,302.62089752176826" stroke="#000000" stroke-dashoffset="0.0" stroke-width="1"/> </svg>