
<svg height="401.2417950435365" version="1.1" width="468.0" xmlns="http://www.w3.org/2000/svg">
<rect fill="#FFFFFF" fill-opacity="0.6000000238418579" height="29.564634963161424" stroke="#FFFFFF" stroke-width="2" width="244.90823844608173" x="96.0" y="62.620897521768256"/> 
<text fill="#000000" font-size="15.399999999999999" x="102.0" y="80.62089752176826">Kwadraat loodlijn op middellijn</text>
<rect fill="#FFFFFF" fill-opacity="0.6000000238418579" height="29.564634963161424" stroke="#FFFFFF" stroke-width="2" width="269.0006697923644" x="96.0" y="96.62089752176826"/> 
<text fill="#000000" font-size="15.399999999999999" x="102.0" y="114.62089752176826">Product stukken van de middellijn</text>
<rect fill="#FFFFFF" fill-opacity="0.6000000238418579" height="29.56463496316141" stroke="#FFFFFF" stroke-width="2" width="141.0676490288011" x="96.0" y="130.62089752176826"/> 
<text fill="#000000" font-size="15.399999999999999" x="102.0" y="148.62089752176826">CD^2 = AD x DB</text>
<path d=" M 231.0 265.62089752176826 L 237.0 271.62089752176826 M 231.0 271.62089752176826 L 237.0 265.62089752176826" fill="none" stroke="#E50000" stroke-width="1.375"/> 
<text fill="#000000" font-size="11.2" x="241.0" y="284.62089752176826">M</text>
<path d=" M 163.0 299.62089752176826 L 169.0 305.62089752176826 M 163.0 305.62089752176826 L 169.0 299.62089752176826" fill="none" stroke="#E50000" stroke-width="1.375"/> 
<text fill="#000000" font-size="11.2" x="173.0" y="318.62089752176826">R</text>
<path d=" M 129.0 265.62089752176826 L 135.0 271.62089752176826 M 129.0 271.62089752176826 L 135.0 265.62089752176826" fill="none" stroke="#E50000" stroke-width="1.375"/> 
<path d=" M 197.0 163.62089752176826 L 203.0 169.62089752176826 M 197.0 169.62089752176826 L 203.0 163.62089752176826" fill="none" stroke="#E50000" stroke-width="1.375"/> 
<circle cx="234.0" cy="268.62089752176826" fill="none" r="76.02631123499285" stroke="#000000" stroke-dasharray="1 6" stroke-dashoffset="0.0" stroke-width="1"/> 
<rect fill="#E50000" height="6.0" width="6.0" x="154.97368876500715" y="265.62089752176826"/> 
<text fill="#000000" font-size="11.2" x="164.97368876500715" y="284.62089752176826">A</text>
<rect fill="#E50000" height="6.0" width="6.0" x="307.0263112349928" y="265.62089752176826"/> 
<text fill="#000000" font-size="11.2" x="317.0263112349928" y="284.62089752176826">B</text>
<polyline fill="none" points="157.97368876500715,268.62089752176826 310.0263112349928,268.62089752176826" stroke="#000000" stroke-dashoffset="0.0" stroke-width="1"/> 
<rect fill="#E50000" height="6.0" width="6.0" x="197.0" y="197.62089752176826"/> 
<text fill="#000000" font-size="11.2" x="207.0" y="216.62089752176826">C</text>
<rect fill="#E50000" height="6.0" width="6.0" x="197.0" y="265.62089752176826"/> 
<text fill="#000000" font-size="11.2" x="207.0" y="284.62089752176826">D</text>
<polyline fill="none" points="200.0,200.62089752176826 200.0,268.62089752176826" stroke="#000000" stroke-dashoffset="0.0" stroke-width="1"/> </svg>