
<svg height="401.2417950435365" version="1.1" width="468.0" xmlns="http://www.w3.org/2000/svg">
<rect fill="#FFFFFF" fill-opacity="0.6000000238418579" height="29.564634963161424" stroke="#FFFFFF" stroke-width="2" width="104.82585398526459" x="96.0" y="96.62089752176826"/> 
<text fill="#000000" font-size="15.399999999999999" x="102.0" y="114.62089752176826">Oppervlakte</text>
<rect fill="#FFFFFF" fill-opacity="0.6000000238418579" height="29.56463496316141" stroke="#FFFFFF" stroke-width="2" width="180.6985934360349" x="96.0" y="130.62089752176826"/> 
<text fill="#000000" font-size="15.399999999999999" x="102.0" y="148.62089752176826">Hoogtelijn h op zijde a</text>
<rect fill="#FFFFFF" fill-opacity="0.6000000238418579" height="29.56463496316141" stroke="#FFFFFF" stroke-width="2" width="156.0241125251172" x="96.0" y="164.62089752176826"/> 
<text fill="#000000" font-size="15.399999999999999" x="102.0" y="182.62089752176826">Omtrek 2s=a+b+c</text>
<rect fill="#FFFFFF" fill-opacity="0.6000000238418579" height="29.56463496316141" stroke="#FFFFFF" stroke-width="2" width="189.9450770261219" x="96.0" y="198.62089752176826"/> 
<text fill="#000000" font-size="15.399999999999999" x="102.0" y="216.62089752176826">sqrt(s (s-a)(s-b)(s-c))</text>
<path d=" M 163.0 299.62089752176826 L 169.0 305.62089752176826 M 163.0 305.62089752176826 L 169.0 299.62089752176826" fill="none" stroke="#E50000" stroke-width="1.375"/> 
<text fill="#000000" font-size="11.2" x="173.0" y="318.62089752176826">A</text>
<path d=" M 333.0 299.62089752176826 L 339.0 305.62089752176826 M 333.0 305.62089752176826 L 339.0 299.62089752176826" fill="none" stroke="#E50000" stroke-width="1.375"/> 
<text fill="#000000" font-size="11.2" x="343.0" y="318.62089752176826">B</text>
<path d=" M 197.0 231.62089752176826 L 203.0 237.62089752176826 M 197.0 237.62089752176826 L 203.0 231.62089752176826" fill="none" stroke="#E50000" stroke-width="1.375"/> 
<text fill="#000000" font-size="11.2" x="207.0" y="250.62089752176826">C</text>
<polyline fill="none" points="166.0,302.62089752176826 336.0,302.62089752176826" stroke="#000000" stroke-dashoffset="0.0" stroke-width="1"/> 
<text fill="#000000" font-size="11.2" x="258.0" y="318.62089752176826">a</text>
<polyline fill="none" points="166.0,302.62089752176826 200.0,234.62089752176826" stroke="#000000" stroke-dashoffset="0.0" stroke-width="1"/> 
<text fill="#000000" font-size="11.2" x="190.0" y="284.62089752176826">b</text>
<polyline fill="none" points="336.0,302.62089752176826 200.0,234.62089752176826" stroke="#000000" stroke-dashoffset="0.0" stroke-width="1"/> 
<text fill="#000000" font-size="11.2" x="275.0" y="284.62089752176826">c</text>
<rect fill="#E50000" height="6.0" width="6.0" x="197.0" y="299.62089752176826"/> 
<text fill="#000000" font-size="11.2" x="207.0" y="318.62089752176826">F</text>
<polyline fill="none" points="200.0,234.62089752176826 200.0,302.62089752176826" stroke="#000000" stroke-dashoffset="0.0" stroke-width="1"/> 
<text fill="#000000" font-size="11.2" x="207.0" y="284.62089752176826">h</text></svg>