
<svg height="401.2417950435365" version="1.1" width="468.0" xmlns="http://www.w3.org/2000/svg">
<rect fill="#FFFFFF" fill-opacity="0.6000000238418579" height="29.564634963161424" stroke="#FFFFFF" stroke-width="2" width="104.82585398526459" x="96.0" y="62.620897521768256"/> 
<text fill="#000000" font-size="15.399999999999999" x="102.0" y="80.62089752176826">Oppervlakte</text>
<rect fill="#FFFFFF" fill-opacity="0.6000000238418579" height="29.564634963161424" stroke="#FFFFFF" stroke-width="2" width="300.70395177494976" x="96.0" y="96.62089752176826"/> 
<text fill="#000000" font-size="15.399999999999999" x="102.0" y="114.62089752176826">Helft som evenwijdige zijden x hoogte</text>
<rect fill="#FFFFFF" fill-opacity="0.6000000238418579" height="29.56463496316141" stroke="#FFFFFF" stroke-width="2" width="159.40589417280646" x="96.0" y="130.62089752176826"/> 
<text fill="#000000" font-size="15.399999999999999" x="102.0" y="148.62089752176826">1/2 (AB + CD) x DH</text>
<path d=" M 197.0 265.62089752176826 L 203.0 271.62089752176826 M 197.0 271.62089752176826 L 203.0 265.62089752176826" fill="none" stroke="#E50000" stroke-width="1.375"/> 
<text fill="#000000" font-size="11.2" x="207.0" y="284.62089752176826">A</text>
<path d=" M 367.0 265.62089752176826 L 373.0 271.62089752176826 M 367.0 271.62089752176826 L 373.0 265.62089752176826" fill="none" stroke="#E50000" stroke-width="1.375"/> 
<text fill="#000000" font-size="11.2" x="377.0" y="284.62089752176826">B</text>
<path d=" M 197.0 163.62089752176826 L 203.0 169.62089752176826 M 197.0 169.62089752176826 L 203.0 163.62089752176826" fill="none" stroke="#E50000" stroke-width="1.375"/> 
<text fill="#000000" font-size="11.2" x="207.0" y="182.62089752176826">C</text>
<path d=" M 367.0 129.62089752176826 L 373.0 135.62089752176826 M 367.0 135.62089752176826 L 373.0 129.62089752176826" fill="none" stroke="#E50000" stroke-width="1.375"/> 
<text fill="#000000" font-size="11.2" x="377.0" y="148.62089752176826">E</text>
<polyline fill="none" points="200.0,268.62089752176826 370.0,268.62089752176826" stroke="#000000" stroke-dashoffset="0.0" stroke-width="1"/> 
<polyline fill="none" points="200.0,268.62089752176826 200.0,166.62089752176826" stroke="#000000" stroke-dashoffset="0.0" stroke-width="1"/> 
<polyline fill="none" points="200.0,268.62089752176826 370.0,132.62089752176826" stroke="#000000" stroke-dasharray="1 6" stroke-dashoffset="0.0" stroke-width="1"/> 
<rect fill="#E50000" height="6.0" width="6.0" x="324.5" y="163.62089752176826"/> 
<text fill="#000000" font-size="11.2" x="334.5" y="182.62089752176826">D</text>
<polyline fill="none" points="200.0,166.62089752176826 327.5,166.62089752176826" stroke="#000000" stroke-dashoffset="0.0" stroke-width="1"/> 
<polyline fill="none" points="327.5,166.62089752176826 370.0,268.62089752176826" stroke="#000000" stroke-dashoffset="0.0" stroke-width="1"/> 
<rect fill="#E50000" height="6.0" width="6.0" x="324.5" y="265.62089752176826"/> 
<text fill="#000000" font-size="11.2" x="334.5" y="284.62089752176826">H</text>
<polyline fill="none" points="327.5,166.62089752176826 327.5,268.62089752176826" stroke="#000000" stroke-dasharray="1 6" stroke-dashoffset="0.0" stroke-width="1"/> </svg>