
<svg height="401.2417950435365" version="1.1" width="468.0" xmlns="http://www.w3.org/2000/svg">
<rect fill="#FFFFFF" fill-opacity="0.6000000238418579" height="29.564634963161424" stroke="#FFFFFF" stroke-width="2" width="291.24380442062966" x="79.0" y="62.620897521768256"/> 
<text fill="#000000" font-size="15.399999999999999" x="85.0" y="80.62089752176826">Aantal diagonalen door elk hoekpunt</text>
<path d=" M 163.0 265.62089752176826 L 169.0 271.62089752176826 M 163.0 271.62089752176826 L 169.0 265.62089752176826" fill="none" stroke="#E50000" stroke-width="1.375"/> 
<text fill="#000000" font-size="11.2" x="173.0" y="284.62089752176826">A</text>
<path d=" M 333.0 265.62089752176826 L 339.0 271.62089752176826 M 333.0 271.62089752176826 L 339.0 265.62089752176826" fill="none" stroke="#E50000" stroke-width="1.375"/> 
<text fill="#000000" font-size="11.2" x="343.0" y="284.62089752176826">B</text>
<path d=" M 265.0 129.62089752176826 L 271.0 135.62089752176826 M 265.0 135.62089752176826 L 271.0 129.62089752176826" fill="none" stroke="#E50000" stroke-width="1.375"/> 
<text fill="#000000" font-size="11.2" x="275.0" y="148.62089752176826">C</text>
<path d=" M 163.0 163.62089752176826 L 169.0 169.62089752176826 M 163.0 169.62089752176826 L 169.0 163.62089752176826" fill="none" stroke="#E50000" stroke-width="1.375"/> 
<text fill="#000000" font-size="11.2" x="173.0" y="182.62089752176826">D</text>
<path d=" M 129.0 129.62089752176826 L 135.0 135.62089752176826 M 129.0 135.62089752176826 L 135.0 129.62089752176826" fill="none" stroke="#E50000" stroke-width="1.375"/> 
<text fill="#000000" font-size="11.2" x="139.0" y="148.62089752176826">E</text>
<polyline fill="none" points="166.0,268.62089752176826 336.0,268.62089752176826" stroke="#000000" stroke-dashoffset="0.0" stroke-width="1"/> 
<polyline fill="none" points="336.0,268.62089752176826 268.0,132.62089752176826" stroke="#000000" stroke-dashoffset="0.0" stroke-width="1"/> 
<polyline fill="none" points="268.0,132.62089752176826 166.0,166.62089752176826" stroke="#000000" stroke-dashoffset="0.0" stroke-width="1"/> 
<polyline fill="none" points="166.0,166.62089752176826 132.0,132.62089752176826" stroke="#000000" stroke-dashoffset="0.0" stroke-width="1"/> 
<polyline fill="none" points="166.0,268.62089752176826 132.0,132.62089752176826" stroke="#000000" stroke-dashoffset="0.0" stroke-width="1"/> 
<polyline fill="none" points="166.0,268.62089752176826 268.0,132.62089752176826" stroke="#000000" stroke-dasharray="1 6" stroke-dashoffset="0.0" stroke-width="1"/> 
<polyline fill="none" points="166.0,268.62089752176826 166.0,166.62089752176826" stroke="#000000" stroke-dasharray="1 6" stroke-dashoffset="0.0" stroke-width="1"/> </svg>