
<svg height="401.2417950435365" version="1.1" width="468.0" xmlns="http://www.w3.org/2000/svg">
<rect fill="#FFFFFF" fill-opacity="0.6000000238418579" height="29.564634963161424" stroke="#FFFFFF" stroke-width="2" width="107.57401205626257" x="96.0" y="62.620897521768256"/> 
<text fill="#000000" font-size="15.399999999999999" x="102.0" y="80.62089752176826">Hoogtelijnen</text>
<rect fill="#FFFFFF" fill-opacity="0.6000000238418579" height="29.564634963161424" stroke="#FFFFFF" stroke-width="2" width="289.0924313462827" x="96.0" y="96.62089752176826"/> 
<text fill="#000000" font-size="15.399999999999999" x="102.0" y="114.62089752176826">Omgekeerd evenredig met de zijden</text>
<rect fill="#FFFFFF" fill-opacity="0.6000000238418579" height="29.56463496316141" stroke="#FFFFFF" stroke-width="2" width="269.70797052913593" x="96.0" y="130.62089752176826"/> 
<text fill="#000000" font-size="15.399999999999999" x="102.0" y="148.62089752176826">Waarop ze staan : AD:BE = AC:BC</text>
<path d=" M 163.0 333.62089752176826 L 169.0 339.62089752176826 M 163.0 339.62089752176826 L 169.0 333.62089752176826" fill="none" stroke="#E50000" stroke-width="1.375"/> 
<text fill="#000000" font-size="11.2" x="173.0" y="352.62089752176826">A</text>
<path d=" M 299.0 333.62089752176826 L 305.0 339.62089752176826 M 299.0 339.62089752176826 L 305.0 333.62089752176826" fill="none" stroke="#E50000" stroke-width="1.375"/> 
<text fill="#000000" font-size="11.2" x="309.0" y="352.62089752176826">B</text>
<path d=" M 231.0 163.62089752176826 L 237.0 169.62089752176826 M 231.0 169.62089752176826 L 237.0 163.62089752176826" fill="none" stroke="#E50000" stroke-width="1.375"/> 
<text fill="#000000" font-size="11.2" x="241.0" y="182.62089752176826">C</text>
<polyline fill="none" points="166.0,336.62089752176826 302.0,336.62089752176826" stroke="#000000" stroke-dashoffset="0.0" stroke-width="1"/> 
<polyline fill="none" points="166.0,336.62089752176826 234.0,166.62089752176826" stroke="#000000" stroke-dashoffset="0.0" stroke-width="1"/> 
<polyline fill="none" points="302.0,336.62089752176826 234.0,166.62089752176826" stroke="#000000" stroke-dashoffset="0.0" stroke-width="1"/> 
<polyline fill="none" points="463.55224380442064,401.2417950435365 0,215.82089752176827" stroke="#000000" stroke-dashoffset="0.0" stroke-width="1"/> 
<rect fill="#E50000" height="6.0" width="6.0" x="181.75862068965517" y="286.72434579763035"/> 
<text fill="#000000" font-size="11.2" x="191.75862068965517" y="305.72434579763035">E</text>
<polyline fill="none" points="4.447756195579405,401.2417950435365 468.0,215.8208975217683" stroke="#000000" stroke-dashoffset="0.0" stroke-width="1"/> 
<rect fill="#E50000" height="6.0" width="6.0" x="280.2413793103448" y="286.72434579763035"/> 
<text fill="#000000" font-size="11.2" x="290.2413793103448" y="305.72434579763035">D</text>
<path d=" M 228.42913985468846 180.54804788504714 A 15 15 0 0 0 239.57086014531154 180.54804788504714" fill="none" stroke="#000000" stroke-width="1"/> 
<text fill="#000000" font-size="11.2" x="224.2746148693905" y="206.62089752176826">44°</text>
<path d=" M 194.04338759850776 293.4382525611714 L 197.7572943620488 284.1534856523188 L 188.47252745319622 280.43957888877776" fill="none" stroke="#000000" stroke-width="1"/> 
<text fill="#000000" font-size="11.2" x="207.20331160967768" y="280.9371703473595">90°</text>
<path d=" M 279.5274725468038 280.43957888877776 L 270.2427056379512 284.1534856523188 L 273.95661240149224 293.4382525611714" fill="none" stroke="#000000" stroke-width="1"/> 
<text fill="#000000" font-size="11.2" x="241.3459181291033" y="280.9371703473595">90°</text></svg>