
<svg height="401.2417950435365" version="1.1" width="468.0" xmlns="http://www.w3.org/2000/svg">
<rect fill="#FFFFFF" fill-opacity="0.6000000238418579" height="29.564634963161424" stroke="#FFFFFF" stroke-width="2" width="113.3945077026122" x="96.0" y="62.620897521768256"/> 
<text fill="#000000" font-size="15.399999999999999" x="102.0" y="80.62089752176826">Omtrekshoek</text>
<rect fill="#FFFFFF" fill-opacity="0.6000000238418579" height="29.564634963161424" stroke="#FFFFFF" stroke-width="2" width="273.030810448761" x="96.0" y="96.62089752176826"/> 
<text fill="#000000" font-size="15.399999999999999" x="102.0" y="114.62089752176826">Helft van de boog waarop hij staat</text>
<path d=" M 197.0 299.62089752176826 L 203.0 305.62089752176826 M 197.0 305.62089752176826 L 203.0 299.62089752176826" fill="none" stroke="#E50000" stroke-width="1.375"/> 
<text fill="#000000" font-size="11.2" x="207.0" y="318.62089752176826">A</text>
<path d=" M 231.0 231.62089752176826 L 237.0 237.62089752176826 M 231.0 237.62089752176826 L 237.0 231.62089752176826" fill="none" stroke="#E50000" stroke-width="1.375"/> 
<text fill="#000000" font-size="11.2" x="241.0" y="250.62089752176826">M</text>
<path d=" M 333.0 197.62089752176826 L 339.0 203.62089752176826 M 333.0 203.62089752176826 L 339.0 197.62089752176826" fill="none" stroke="#E50000" stroke-width="1.375"/> 
<path d=" M 299.0 129.62089752176826 L 305.0 135.62089752176826 M 299.0 135.62089752176826 L 305.0 129.62089752176826" fill="none" stroke="#E50000" stroke-width="1.375"/> 
<circle cx="234.0" cy="234.62089752176826" fill="none" r="76.02631123499285" stroke="#000000" stroke-dasharray="1 6" stroke-dashoffset="0.0" stroke-width="1"/> 
<rect fill="#E50000" height="6.0" width="6.0" x="305.8" y="218.02089752176823"/> 
<text fill="#000000" font-size="11.2" x="315.8" y="237.02089752176823">B</text>
<rect fill="#E50000" height="6.0" width="6.0" x="275.0" y="169.62089752176826"/> 
<text fill="#000000" font-size="11.2" x="285.0" y="188.62089752176826">C</text>
<polyline fill="none" points="200.0,302.62089752176826 278.0,172.62089752176826" stroke="#000000" stroke-dashoffset="0.0" stroke-width="1"/> 
<polyline fill="none" points="200.0,302.62089752176826 308.8,221.02089752176823" stroke="#000000" stroke-dashoffset="0.0" stroke-width="1"/> 
<path d=" M 212.0 293.62089752176826 A 15 15 0 0 0 207.7174363314129 289.7585036360801" fill="none" stroke="#000000" stroke-width="1"/> 
<text fill="#000000" font-size="11.2" x="213.7154823866162" y="281.6300196981958">22°</text>
<path d=" M 294.0419513485014 223.704179094768 A 15 15 0 0 0 296.8 230.02089752176823" fill="none" stroke="#000000" stroke-width="1"/> 
<text fill="#000000" font-size="11.2" x="266.99883183279945" y="240.02604452526447">27°</text>
<polyline fill="none" points="234.0,234.62089752176826 308.8,221.02089752176823" stroke="#000000" stroke-dasharray="1 6" stroke-dashoffset="0.0" stroke-width="1"/> 
<path d=" M 308.8 221.02089752176823 A 76.02631123499285 76.02631123499285 0 0 0 278.0 172.62089752176826" fill="none" stroke="#000000" stroke-dashoffset="0.0" stroke-width="3"/> </svg>