
<svg height="401.2417950435365" version="1.1" width="468.0" xmlns="http://www.w3.org/2000/svg">
<rect fill="#FFFFFF" fill-opacity="0.6000000238418579" height="29.564634963161424" stroke="#FFFFFF" stroke-width="2" width="157.6302746148694" x="97.0" y="61.620897521768256"/> 
<text fill="#000000" font-size="15.399999999999999" x="103.0" y="79.62089752176826">Middenevenwijdige</text>
<rect fill="#FFFFFF" fill-opacity="0.6000000238418579" height="29.564634963161424" stroke="#FFFFFF" stroke-width="2" width="229.3770931011387" x="97.0" y="95.62089752176826"/> 
<text fill="#000000" font-size="15.399999999999999" x="103.0" y="113.62089752176826">Helft som evenwijdige zijden</text>
<path d=" M 198.0 264.62089752176826 L 204.0 270.62089752176826 M 198.0 270.62089752176826 L 204.0 264.62089752176826" fill="none" stroke="#E50000" stroke-width="1.375"/> 
<text fill="#000000" font-size="11.2" x="208.0" y="283.62089752176826">A</text>
<path d=" M 368.0 264.62089752176826 L 374.0 270.62089752176826 M 368.0 270.62089752176826 L 374.0 264.62089752176826" fill="none" stroke="#E50000" stroke-width="1.375"/> 
<text fill="#000000" font-size="11.2" x="378.0" y="283.62089752176826">B</text>
<path d=" M 198.0 162.62089752176826 L 204.0 168.62089752176826 M 198.0 168.62089752176826 L 204.0 162.62089752176826" fill="none" stroke="#E50000" stroke-width="1.375"/> 
<text fill="#000000" font-size="11.2" x="208.0" y="181.62089752176826">C</text>
<path d=" M 368.0 128.62089752176826 L 374.0 134.62089752176826 M 368.0 134.62089752176826 L 374.0 128.62089752176826" fill="none" stroke="#E50000" stroke-width="1.375"/> 
<text fill="#000000" font-size="11.2" x="378.0" y="147.62089752176826">E</text>
<rect fill="#E50000" height="6.0" width="6.0" x="198.0" y="213.62089752176826"/> 
<text fill="#000000" font-size="11.2" x="208.0" y="232.62089752176826">P</text>
<polyline fill="none" points="201.0,267.62089752176826 371.0,267.62089752176826" stroke="#000000" stroke-dashoffset="0.0" stroke-width="1"/> 
<polyline fill="none" points="201.0,267.62089752176826 201.0,165.62089752176826" stroke="#000000" stroke-dashoffset="0.0" stroke-width="1"/> 
<polyline fill="none" points="0,216.62089752176826 468.0,216.62089752176826" stroke="#000000" stroke-dashoffset="0.0" stroke-width="1"/> 
<polyline fill="none" points="201.0,267.62089752176826 371.0,131.62089752176826" stroke="#000000" stroke-dasharray="1 6" stroke-dashoffset="0.0" stroke-width="1"/> 
<rect fill="#E50000" height="6.0" width="6.0" x="325.5" y="162.62089752176826"/> 
<text fill="#000000" font-size="11.2" x="335.5" y="181.62089752176826">D</text>
<polyline fill="none" points="201.0,165.62089752176826 328.5,165.62089752176826" stroke="#000000" stroke-dashoffset="0.0" stroke-width="1"/> 
<polyline fill="none" points="328.5,165.62089752176826 371.0,267.62089752176826" stroke="#000000" stroke-dashoffset="0.0" stroke-width="1"/> 
<rect fill="#E50000" height="6.0" width="6.0" x="346.75" y="213.62089752176826"/> 
<text fill="#000000" font-size="11.2" x="356.75" y="232.62089752176826">Q</text>
<rect fill="#E50000" height="6.0" width="6.0" x="261.75" y="213.62089752176826"/> 
<text fill="#000000" font-size="11.2" x="271.75" y="232.62089752176826">S</text></svg>