
<svg height="401.2417950435365" version="1.1" width="468.0" xmlns="http://www.w3.org/2000/svg">
<rect fill="#FFFFFF" fill-opacity="0.6000000238418579" height="29.56463496316141" stroke="#FFFFFF" stroke-width="2" width="229.8044206296048" x="164.0" y="130.62089752176826"/> 
<text fill="#000000" font-size="15.399999999999999" x="170.0" y="148.62089752176826">Verwisselende buitenhoeken</text>
<path d=" M 197.0 197.62089752176826 L 203.0 203.62089752176826 M 197.0 203.62089752176826 L 203.0 197.62089752176826" fill="none" stroke="#E50000" stroke-width="1.375"/> 
<text fill="#000000" font-size="11.2" x="207.0" y="216.62089752176826">A</text>
<path d=" M 299.0 197.62089752176826 L 305.0 203.62089752176826 M 299.0 203.62089752176826 L 305.0 197.62089752176826" fill="none" stroke="#E50000" stroke-width="1.375"/> 
<text fill="#000000" font-size="11.2" x="309.0" y="216.62089752176826">B</text>
<path d=" M 299.0 95.62089752176826 L 305.0 101.62089752176826 M 299.0 101.62089752176826 L 305.0 95.62089752176826" fill="none" stroke="#E50000" stroke-width="1.375"/> 
<text fill="#000000" font-size="11.2" x="309.0" y="114.62089752176826">C</text>
<path d=" M 231.0 299.62089752176826 L 237.0 305.62089752176826 M 231.0 305.62089752176826 L 237.0 299.62089752176826" fill="none" stroke="#E50000" stroke-width="1.375"/> 
<text fill="#000000" font-size="11.2" x="241.0" y="318.62089752176826">D</text>
<path d=" M 265.0 265.62089752176826 L 271.0 271.62089752176826 M 265.0 271.62089752176826 L 271.0 265.62089752176826" fill="none" stroke="#E50000" stroke-width="1.375"/> 
<text fill="#000000" font-size="11.2" x="275.0" y="284.62089752176826">E</text>
<polyline fill="none" points="0,200.62089752176826 468.0,200.62089752176826" stroke="#000000" stroke-dashoffset="0.0" stroke-width="1"/> 
<polyline fill="none" points="201.12636749274387,401.2417950435365 334.87363250725605,0" stroke="#000000" stroke-dashoffset="0.0" stroke-width="1"/> 
<polyline fill="none" points="0,268.62089752176826 468.0,268.62089752176826" stroke="#000000" stroke-dashoffset="0.0" stroke-width="1"/> 
<rect fill="#E50000" height="6.0" width="6.0" x="265.0" y="197.62089752176826"/> 
<rect fill="#E50000" height="6.0" width="6.0" x="242.33333333333334" y="265.62089752176826"/> 
<path d=" M 272.74341649025257 186.39064805101054 A 15 15 0 0 0 253.0 200.62089752176826" fill="none" stroke="#000000" stroke-width="1"/> 
<text fill="#000000" font-size="11.2" x="234.31879710307766" y="177.22742104062363">108°</text>
<path d=" M 240.58991684308077 282.85114699252597 A 15 15 0 0 0 260.3333333333333 268.62089752176826" fill="none" stroke="#000000" stroke-width="1"/> 
<text fill="#000000" font-size="11.2" x="252.58185036287455" y="302.01437400291286">108°</text></svg>