
<svg height="401.2417950435365" version="1.1" width="468.0" xmlns="http://www.w3.org/2000/svg">
<rect fill="#FFFFFF" fill-opacity="0.6000000238418579" height="29.564634963161424" stroke="#FFFFFF" stroke-width="2" width="158.53650368385806" x="96.0" y="62.620897521768256"/> 
<text fill="#000000" font-size="15.399999999999999" x="102.0" y="80.62089752176826">Raakpunt op de lijn</text>
<rect fill="#FFFFFF" fill-opacity="0.6000000238418579" height="29.564634963161424" stroke="#FFFFFF" stroke-width="2" width="195.4929671801741" x="96.0" y="96.62089752176826"/> 
<text fill="#000000" font-size="15.399999999999999" x="102.0" y="114.62089752176826">tussen de middelpunten</text>
<path d=" M 163.0 163.62089752176826 L 169.0 169.62089752176826 M 163.0 169.62089752176826 L 169.0 163.62089752176826" fill="none" stroke="#E50000" stroke-width="1.375"/> 
<text fill="#000000" font-size="11.2" x="173.0" y="182.62089752176826">A</text>
<path d=" M 163.0 231.62089752176826 L 169.0 237.62089752176826 M 163.0 237.62089752176826 L 169.0 231.62089752176826" fill="none" stroke="#E50000" stroke-width="1.375"/> 
<text fill="#000000" font-size="11.2" x="173.0" y="250.62089752176826">M</text>
<path d=" M 333.0 231.62089752176826 L 339.0 237.62089752176826 M 333.0 237.62089752176826 L 339.0 231.62089752176826" fill="none" stroke="#E50000" stroke-width="1.375"/> 
<text fill="#000000" font-size="11.2" x="343.0" y="250.62089752176826">N</text>
<circle cx="166.0" cy="234.62089752176826" fill="none" r="68.0" stroke="#000000" stroke-dasharray="1 6" stroke-dashoffset="0.0" stroke-width="1"/> 
<polyline fill="none" points="0,234.62089752176826 468.0,234.62089752176826" stroke="#000000" stroke-dasharray="1 6" stroke-dashoffset="0.0" stroke-width="1"/> 
<rect fill="#E50000" height="6.0" width="6.0" x="231.0" y="231.62089752176826"/> 
<text fill="#000000" font-size="11.2" x="241.0" y="250.62089752176826">R</text>
<circle cx="336.0" cy="234.62089752176826" fill="none" r="102.0" stroke="#000000" stroke-dasharray="1 6" stroke-dashoffset="0.0" stroke-width="1"/> </svg>