
<svg height="401.2417950435365" version="1.1" width="468.0" xmlns="http://www.w3.org/2000/svg">
<rect fill="#FFFFFF" fill-opacity="0.6000000238418579" height="29.564634963161424" stroke="#FFFFFF" stroke-width="2" width="227.43201607501675" x="96.0" y="62.620897521768256"/> 
<text fill="#000000" font-size="15.399999999999999" x="102.0" y="80.62089752176826">Driehoeken zijn gelijkvormig</text>
<rect fill="#FFFFFF" fill-opacity="0.6000000238418579" height="29.564634963161424" stroke="#FFFFFF" stroke-width="2" width="203.2438044206296" x="96.0" y="96.62089752176826"/> 
<text fill="#000000" font-size="15.399999999999999" x="102.0" y="114.62089752176826">Indien 2 zijden evenredig</text>
<rect fill="#FFFFFF" fill-opacity="0.6000000238418579" height="29.56463496316141" stroke="#FFFFFF" stroke-width="2" width="177.50837240455462" x="96.0" y="130.62089752176826"/> 
<text fill="#000000" font-size="15.399999999999999" x="102.0" y="148.62089752176826">Ingesloten hoek gelijk</text>
<path d=" M 197.0 265.62089752176826 L 203.0 271.62089752176826 M 197.0 271.62089752176826 L 203.0 265.62089752176826" fill="none" stroke="#E50000" stroke-width="1.375"/> 
<text fill="#000000" font-size="11.2" x="207.0" y="284.62089752176826">A</text>
<path d=" M 367.0 265.62089752176826 L 373.0 271.62089752176826 M 367.0 271.62089752176826 L 373.0 265.62089752176826" fill="none" stroke="#E50000" stroke-width="1.375"/> 
<text fill="#000000" font-size="11.2" x="377.0" y="284.62089752176826">B</text>
<path d=" M 299.0 129.62089752176826 L 305.0 135.62089752176826 M 299.0 135.62089752176826 L 305.0 129.62089752176826" fill="none" stroke="#E50000" stroke-width="1.375"/> 
<text fill="#000000" font-size="11.2" x="309.0" y="148.62089752176826">C</text>
<path d=" M 231.0 299.62089752176826 L 237.0 305.62089752176826 M 231.0 305.62089752176826 L 237.0 299.62089752176826" fill="none" stroke="#E50000" stroke-width="1.375"/> 
<text fill="#000000" font-size="11.2" x="241.0" y="318.62089752176826">D</text>
<path d=" M 129.0 299.62089752176826 L 135.0 305.62089752176826 M 129.0 305.62089752176826 L 135.0 299.62089752176826" fill="none" stroke="#E50000" stroke-width="1.375"/> 
<text fill="#000000" font-size="11.2" x="139.0" y="318.62089752176826">E</text>
<polyline fill="none" points="200.0,268.62089752176826 370.0,268.62089752176826" stroke="#000000" stroke-dashoffset="0.0" stroke-width="3"/> 
<polyline fill="none" points="370.0,268.62089752176826 302.0,132.62089752176826" stroke="#000000" stroke-dashoffset="0.0" stroke-width="1"/> 
<polyline fill="none" points="200.0,268.62089752176826 302.0,132.62089752176826" stroke="#000000" stroke-dashoffset="0.0" stroke-width="3"/> 
<polyline fill="none" points="234.0,302.62089752176826 139.2943057454042,302.62089752176826" stroke="#000000" stroke-dashoffset="0.0" stroke-width="1"/> 
<polyline fill="#000000" points="132.0,302.62089752176826 139.2943057454042,299.34428934461226 139.2943057454042,305.89750569892425 132.0,302.62089752176826"/> 
<rect fill="#E50000" height="6.0" width="6.0" x="129.68" y="219.38089752176825"/> 
<text fill="#000000" font-size="11.2" x="139.68" y="238.38089752176825">P</text>
<rect fill="#E50000" height="6.0" width="6.0" x="241.88" y="219.38089752176828"/> 
<text fill="#000000" font-size="11.2" x="251.88" y="238.38089752176828">Q</text>
<rect fill="#E50000" height="6.0" width="6.0" x="197.0" y="129.62089752176826"/> 
<text fill="#000000" font-size="11.2" x="207.0" y="148.62089752176826">R</text>
<polyline fill="none" points="132.68,222.38089752176825 244.88,222.38089752176828" stroke="#000000" stroke-dashoffset="0.0" stroke-width="3"/> 
<polyline fill="none" points="132.68,222.38089752176825 200.0,132.62089752176826" stroke="#000000" stroke-dashoffset="0.0" stroke-width="3"/> 
<polyline fill="none" points="244.88,222.38089752176828 200.0,132.62089752176826" stroke="#000000" stroke-dashoffset="0.0" stroke-width="1"/> 
<path d=" M 147.68 222.38089752176828 A 15 15 0 0 0 141.68 210.38089752176825" fill="none" stroke="#000000" stroke-width="1"/> 
<text fill="#000000" font-size="11.2" x="154.25956655438756" y="211.72842167926973">53°</text>
<path d=" M 215.0 268.62089752176826 A 15 15 0 0 0 209.0 256.62089752176826" fill="none" stroke="#000000" stroke-width="1"/> 
<text fill="#000000" font-size="11.2" x="221.57956655438755" y="257.96842167926974">53°</text></svg>