
<svg height="401.2417950435365" version="1.1" width="468.0" xmlns="http://www.w3.org/2000/svg">
<rect fill="#FFFFFF" fill-opacity="0.6000000238418579" height="29.564634963161424" stroke="#FFFFFF" stroke-width="2" width="190.43871399866043" x="79.0" y="62.620897521768256"/> 
<text fill="#000000" font-size="15.399999999999999" x="85.0" y="80.62089752176826">Congruente driehoeken</text>
<rect fill="#FFFFFF" fill-opacity="0.6000000238418579" height="29.564634963161424" stroke="#FFFFFF" stroke-width="2" width="147.07970529135972" x="79.0" y="96.62089752176826"/> 
<text fill="#000000" font-size="15.399999999999999" x="85.0" y="114.62089752176826">Drie gelijke zijden</text>
<path d=" M 197.0 197.62089752176826 L 203.0 203.62089752176826 M 197.0 203.62089752176826 L 203.0 197.62089752176826" fill="none" stroke="#E50000" stroke-width="1.375"/> 
<text fill="#000000" font-size="11.2" x="207.0" y="216.62089752176826">A</text>
<path d=" M 299.0 163.62089752176826 L 305.0 169.62089752176826 M 299.0 169.62089752176826 L 305.0 163.62089752176826" fill="none" stroke="#E50000" stroke-width="1.375"/> 
<text fill="#000000" font-size="11.2" x="309.0" y="182.62089752176826">B</text>
<path d=" M 333.0 197.62089752176826 L 339.0 203.62089752176826 M 333.0 203.62089752176826 L 339.0 197.62089752176826" fill="none" stroke="#E50000" stroke-width="1.375"/> 
<text fill="#000000" font-size="11.2" x="343.0" y="216.62089752176826">C</text>
<path d=" M 367.0 197.62089752176826 L 373.0 203.62089752176826 M 367.0 203.62089752176826 L 373.0 197.62089752176826" fill="none" stroke="#E50000" stroke-width="1.375"/> 
<path d=" M 129.0 197.62089752176826 L 135.0 203.62089752176826 M 129.0 203.62089752176826 L 135.0 197.62089752176826" fill="none" stroke="#E50000" stroke-width="1.375"/> 
<polyline fill="none" points="200.0,200.62089752176826 336.0,200.62089752176826" stroke="#000000" stroke-dashoffset="0.0" stroke-width="3"/> 
<polyline fill="none" points="302.0,166.62089752176826 336.0,200.62089752176826" stroke="#000000" stroke-dashoffset="0.0" stroke-width="3"/> 
<polyline fill="none" points="200.0,200.62089752176826 302.0,166.62089752176826" stroke="#000000" stroke-dashoffset="0.0" stroke-width="3"/> 
<polyline fill="none" points="0,200.62089752176826 468.0,200.62089752176826" stroke="#000000" stroke-dasharray="1 6" stroke-dashoffset="0.0" stroke-width="1"/> 
<polyline fill="none" points="200.0,200.62089752176826 336.0,200.62089752176826" stroke="#000000" stroke-dashoffset="0.0" stroke-width="3"/> 
<polyline fill="none" points="302.0,234.62089752176826 336.0,200.62089752176826" stroke="#000000" stroke-dashoffset="0.0" stroke-width="3"/> 
<polyline fill="none" points="200.0,200.62089752176826 302.0,234.62089752176826" stroke="#000000" stroke-dashoffset="0.0" stroke-width="3"/> 
<rect fill="#E50000" height="6.0" width="6.0" x="299.0" y="231.62089752176826"/> 
<text fill="#000000" font-size="11.2" x="309.0" y="250.62089752176826">Q</text>
<polyline fill="none" points="302.0,401.2417950435365 302.0,0" stroke="#15B01A" stroke-dashoffset="0.0" stroke-width="1"/> </svg>