
<svg height="401.2417950435365" version="1.1" width="468.0" xmlns="http://www.w3.org/2000/svg">
<rect fill="#FFFFFF" fill-opacity="0.6000000238418579" height="29.564634963161424" stroke="#FFFFFF" stroke-width="2" width="303.56999330207634" x="79.0" y="62.620897521768256"/> 
<text fill="#000000" font-size="15.399999999999999" x="85.0" y="80.62089752176826">Hoek raaklijn en koorde door raakpunt</text>
<rect fill="#FFFFFF" fill-opacity="0.6000000238418579" height="29.564634963161424" stroke="#FFFFFF" stroke-width="2" width="272.66242464835904" x="79.0" y="96.62089752176826"/> 
<text fill="#000000" font-size="15.399999999999999" x="85.0" y="114.62089752176826">Helft van de boog binnen die hoek</text>
<path d=" M 231.0 163.62089752176826 L 237.0 169.62089752176826 M 231.0 169.62089752176826 L 237.0 163.62089752176826" fill="none" stroke="#E50000" stroke-width="1.375"/> 
<text fill="#000000" font-size="11.2" x="241.0" y="182.62089752176826">A</text>
<path d=" M 299.0 299.62089752176826 L 305.0 305.62089752176826 M 299.0 305.62089752176826 L 305.0 299.62089752176826" fill="none" stroke="#E50000" stroke-width="1.375"/> 
<path d=" M 299.0 129.62089752176826 L 305.0 135.62089752176826 M 299.0 135.62089752176826 L 305.0 129.62089752176826" fill="none" stroke="#E50000" stroke-width="1.375"/> 
<path d=" M 333.0 265.62089752176826 L 339.0 271.62089752176826 M 333.0 271.62089752176826 L 339.0 265.62089752176826" fill="none" stroke="#E50000" stroke-width="1.375"/> 
<path d=" M 231.0 231.62089752176826 L 237.0 237.62089752176826 M 231.0 237.62089752176826 L 237.0 231.62089752176826" fill="none" stroke="#E50000" stroke-width="1.375"/> 
<text fill="#000000" font-size="11.2" x="241.0" y="250.62089752176826">M</text>
<circle cx="234.0" cy="234.62089752176826" fill="none" r="68.0" stroke="#000000" stroke-dasharray="1 6" stroke-dashoffset="0.0" stroke-width="1"/> 
<polyline fill="none" points="0,166.62089752176826 468.0,166.62089752176826" stroke="#000000" stroke-dasharray="1 6" stroke-dashoffset="0.0" stroke-width="1"/> 
<rect fill="#E50000" height="6.0" width="6.0" x="285.4" y="272.42089752176827"/> 
<text fill="#000000" font-size="11.2" x="295.4" y="291.42089752176827">B</text>
<rect fill="#E50000" height="6.0" width="6.0" x="276.3333333333333" y="163.62089752176826"/> 
<text fill="#000000" font-size="11.2" x="286.3333333333333" y="182.62089752176826">C</text>
<rect fill="#E50000" height="6.0" width="6.0" x="299.0" y="231.62089752176826"/> 
<text fill="#000000" font-size="11.2" x="309.0" y="250.62089752176826">S</text>
<polyline fill="none" points="234.0,166.62089752176826 288.4,275.42089752176827" stroke="#000000" stroke-dashoffset="0.0" stroke-width="1"/> 
<path d=" M 288.4 275.42089752176827 A 68.0 68.0 0 0 0 234.0 166.62089752176826" fill="none" stroke="#000000" stroke-dashoffset="0.0" stroke-width="3"/> 
<path d=" M 240.70820393249937 180.037305386767 A 15 15 0 0 0 249.0 166.62089752176826" fill="none" stroke="#000000" stroke-width="1"/> 
<text fill="#000000" font-size="11.2" x="254.04739316171188" y="190.02148644593794">63°</text>
<polyline fill="none" points="234.0,166.62089752176826 302.0,234.62089752176826" stroke="#000000" stroke-dasharray="1 6" stroke-dashoffset="0.0" stroke-width="1"/> </svg>