
<svg height="401.2417950435365" version="1.1" width="468.0" xmlns="http://www.w3.org/2000/svg">
<rect fill="#FFFFFF" fill-opacity="0.6000000238418579" height="29.564634963161424" stroke="#FFFFFF" stroke-width="2" width="291.44273275284667" x="79.0" y="62.620897521768256"/> 
<text fill="#000000" font-size="15.399999999999999" x="85.0" y="80.62089752176826">Som van de hoeken van een n-hoek</text>
<path d=" M 163.0 265.62089752176826 L 169.0 271.62089752176826 M 163.0 271.62089752176826 L 169.0 265.62089752176826" fill="none" stroke="#E50000" stroke-width="1.375"/> 
<text fill="#000000" font-size="11.2" x="173.0" y="284.62089752176826">A</text>
<path d=" M 333.0 265.62089752176826 L 339.0 271.62089752176826 M 333.0 271.62089752176826 L 339.0 265.62089752176826" fill="none" stroke="#E50000" stroke-width="1.375"/> 
<text fill="#000000" font-size="11.2" x="343.0" y="284.62089752176826">B</text>
<path d=" M 265.0 129.62089752176826 L 271.0 135.62089752176826 M 265.0 135.62089752176826 L 271.0 129.62089752176826" fill="none" stroke="#E50000" stroke-width="1.375"/> 
<text fill="#000000" font-size="11.2" x="275.0" y="148.62089752176826">C</text>
<path d=" M 163.0 163.62089752176826 L 169.0 169.62089752176826 M 163.0 169.62089752176826 L 169.0 163.62089752176826" fill="none" stroke="#E50000" stroke-width="1.375"/> 
<text fill="#000000" font-size="11.2" x="173.0" y="182.62089752176826">D</text>
<path d=" M 129.0 129.62089752176826 L 135.0 135.62089752176826 M 129.0 135.62089752176826 L 135.0 129.62089752176826" fill="none" stroke="#E50000" stroke-width="1.375"/> 
<text fill="#000000" font-size="11.2" x="139.0" y="148.62089752176826">E</text>
<path d=" M 231.0 197.62089752176826 L 237.0 203.62089752176826 M 231.0 203.62089752176826 L 237.0 197.62089752176826" fill="none" stroke="#E50000" stroke-width="1.375"/> 
<text fill="#000000" font-size="11.2" x="241.0" y="216.62089752176826">F</text>
<polyline fill="none" points="166.0,268.62089752176826 336.0,268.62089752176826" stroke="#000000" stroke-dashoffset="0.0" stroke-width="1"/> 
<polyline fill="none" points="336.0,268.62089752176826 268.0,132.62089752176826" stroke="#000000" stroke-dashoffset="0.0" stroke-width="1"/> 
<polyline fill="none" points="268.0,132.62089752176826 166.0,166.62089752176826" stroke="#000000" stroke-dashoffset="0.0" stroke-width="1"/> 
<polyline fill="none" points="166.0,166.62089752176826 132.0,132.62089752176826" stroke="#000000" stroke-dashoffset="0.0" stroke-width="1"/> 
<polyline fill="none" points="166.0,268.62089752176826 132.0,132.62089752176826" stroke="#000000" stroke-dashoffset="0.0" stroke-width="1"/> 
<path d=" M 329.2917960675006 255.2044896567695 A 15 15 0 0 0 321.0 268.62089752176826" fill="none" stroke="#000000" stroke-width="1"/> 
<text fill="#000000" font-size="11.2" x="296.50183657706907" y="255.22030859759857">63°</text>
<path d=" M 253.7697505292423 137.36431401202083 A 15 15 0 0 0 274.7082039324994 146.037305386767" fill="none" stroke="#000000" stroke-width="1"/> 
<text fill="#000000" font-size="11.2" x="244.88069473661236" y="169.9566811596633">98°</text>
<path d=" M 155.3933982822018 156.01429580397004 A 15 15 0 1 0 180.2302494707577 161.87748103151569" fill="none" stroke="#000000" stroke-width="1"/> 
<text fill="#000000" font-size="11.2" x="144.74230484715181" y="205.6846121531388">243°</text>
<path d=" M 135.63803437554498 147.17303502394824 A 15 15 0 0 0 142.6066017177982 143.22749923956647" fill="none" stroke="#000000" stroke-width="1"/> 
<text fill="#000000" font-size="11.2" x="139.51907339381626" y="168.07789425814002">31°</text>
<path d=" M 181.0 268.62089752176826 A 15 15 0 0 0 162.36196562445502 254.06876001958827" fill="none" stroke="#000000" stroke-width="1"/> 
<text fill="#000000" font-size="11.2" x="174.3230843954017" y="246.03370719120443">104°</text>
<polyline fill="none" points="166.0,268.62089752176826 234.0,200.62089752176826" stroke="#000000" stroke-dasharray="1 6" stroke-dashoffset="0.0" stroke-width="1"/> 
<polyline fill="none" points="336.0,268.62089752176826 234.0,200.62089752176826" stroke="#000000" stroke-dasharray="1 6" stroke-dashoffset="0.0" stroke-width="1"/> 
<polyline fill="none" points="268.0,132.62089752176826 234.0,200.62089752176826" stroke="#000000" stroke-dasharray="1 6" stroke-dashoffset="0.0" stroke-width="1"/> 
<polyline fill="none" points="166.0,166.62089752176826 234.0,200.62089752176826" stroke="#000000" stroke-dasharray="1 6" stroke-dashoffset="0.0" stroke-width="1"/> 
<polyline fill="none" points="132.0,132.62089752176826 234.0,200.62089752176826" stroke="#000000" stroke-dasharray="1 6" stroke-dashoffset="0.0" stroke-width="1"/> 
<rect fill="#FFFFFF" fill-opacity="0.6000000238418579" height="29.56463496316144" stroke="#FFFFFF" stroke-width="2" width="55.19691895512392" x="96.0" y="300.62089752176826"/> 
<text fill="#000000" font-size="15.399999999999999" x="102.0" y="318.62089752176826">63.00</text>
<rect fill="#FFFFFF" fill-opacity="0.6000000238418579" height="29.56463496316144" stroke="#FFFFFF" stroke-width="2" width="55.19691895512392" x="130.0" y="300.62089752176826"/> 
<text fill="#000000" font-size="15.399999999999999" x="136.0" y="318.62089752176826">98.00</text>
<rect fill="#FFFFFF" fill-opacity="0.6000000238418579" height="29.56463496316144" stroke="#FFFFFF" stroke-width="2" width="64.79705291359679" x="164.0" y="300.62089752176826"/> 
<text fill="#000000" font-size="15.399999999999999" x="170.0" y="318.62089752176826">243.00</text>
<rect fill="#FFFFFF" fill-opacity="0.6000000238418579" height="29.56463496316144" stroke="#FFFFFF" stroke-width="2" width="55.19691895512392" x="198.0" y="300.62089752176826"/> 
<text fill="#000000" font-size="15.399999999999999" x="204.0" y="318.62089752176826">31.00</text>
<rect fill="#FFFFFF" fill-opacity="0.6000000238418579" height="29.56463496316144" stroke="#FFFFFF" stroke-width="2" width="64.79705291359676" x="232.0" y="300.62089752176826"/> 
<text fill="#000000" font-size="15.399999999999999" x="238.0" y="318.62089752176826">104.00</text>
<rect fill="#FFFFFF" fill-opacity="0.6000000238418579" height="29.56463496316144" stroke="#FFFFFF" stroke-width="2" width="64.79705291359676" x="300.0" y="300.62089752176826"/> 
<text fill="#000000" font-size="15.399999999999999" x="306.0" y="318.62089752176826">540.00</text></svg>