
<svg height="401.2417950435365" version="1.1" width="468.0" xmlns="http://www.w3.org/2000/svg">
<rect fill="#FFFFFF" fill-opacity="0.6000000238418579" height="29.564634963161424" stroke="#FFFFFF" stroke-width="2" width="83.70997990622908" x="79.0" y="62.620897521768256"/> 
<text fill="#000000" font-size="15.399999999999999" x="85.0" y="80.62089752176826">Elke zijde</text>
<rect fill="#FFFFFF" fill-opacity="0.6000000238418579" height="29.564634963161424" stroke="#FFFFFF" stroke-width="2" width="226.62156731413262" x="79.0" y="96.62089752176826"/> 
<text fill="#000000" font-size="15.399999999999999" x="85.0" y="114.62089752176826">&lt; Som van de andere zijden</text>
<path d=" M 163.0 333.62089752176826 L 169.0 339.62089752176826 M 163.0 339.62089752176826 L 169.0 333.62089752176826" fill="none" stroke="#E50000" stroke-width="1.375"/> 
<text fill="#000000" font-size="11.2" x="173.0" y="352.62089752176826">A</text>
<path d=" M 333.0 333.62089752176826 L 339.0 339.62089752176826 M 333.0 339.62089752176826 L 339.0 333.62089752176826" fill="none" stroke="#E50000" stroke-width="1.375"/> 
<text fill="#000000" font-size="11.2" x="343.0" y="352.62089752176826">B</text>
<path d=" M 265.0 265.62089752176826 L 271.0 271.62089752176826 M 265.0 271.62089752176826 L 271.0 265.62089752176826" fill="none" stroke="#E50000" stroke-width="1.375"/> 
<text fill="#000000" font-size="11.2" x="275.0" y="284.62089752176826">C</text>
<polyline fill="none" points="166.0,336.62089752176826 336.0,336.62089752176826" stroke="#000000" stroke-dashoffset="0.0" stroke-width="1"/> 
<polyline fill="none" points="69.06865371734763,401.2417950435365 468.0,135.2875641884349" stroke="#000000" stroke-dasharray="1 6" stroke-dashoffset="0.0" stroke-width="1"/> 
<polyline fill="none" points="166.0,336.62089752176826 268.0,268.62089752176826" stroke="#000000" stroke-dashoffset="0.0" stroke-width="1"/> 
<polyline fill="none" points="336.0,336.62089752176826 268.0,268.62089752176826" stroke="#000000" stroke-dashoffset="0.0" stroke-width="1"/> 
<circle cx="268.0" cy="268.62089752176826" fill="none" r="96.16652224137047" stroke="#15B01A" stroke-dashoffset="0.0" stroke-width="1"/> 
<rect fill="#E50000" height="6.0" width="6.0" x="345.0153831363791" y="212.27730876418218"/> 
<text fill="#000000" font-size="11.2" x="355.0153831363791" y="231.27730876418218">P</text>
<polyline fill="none" points="336.0,336.62089752176826 348.0153831363791,215.27730876418218" stroke="#000000" stroke-dasharray="1 6" stroke-dashoffset="0.0" stroke-width="1"/> 
<path d=" M 335.53462872131144 223.59781170756062 A 15 15 0 0 0 346.53731886687945 230.20430866420324" fill="none" stroke="#000000" stroke-width="1"/> 
<text fill="#000000" font-size="11.2" x="320.2728559875023" y="250.28368464487772">51°</text>
<path d=" M 337.4780642694996 321.6938976217472 A 15 15 0 0 0 325.3933982822018 326.01429580397007" fill="none" stroke="#000000" stroke-width="1"/> 
<text fill="#000000" font-size="11.2" x="314.49208804232427" y="308.66377292678175">51°</text></svg>