
<svg height="401.2417950435365" version="1.1" width="468.0" xmlns="http://www.w3.org/2000/svg">
<rect fill="#FFFFFF" fill-opacity="0.6000000238418579" height="29.564634963161424" stroke="#FFFFFF" stroke-width="2" width="176.6389819156062" x="79.0" y="62.620897521768256"/> 
<text fill="#000000" font-size="15.399999999999999" x="85.0" y="80.62089752176826">Gelijkbenige driehoek</text>
<rect fill="#FFFFFF" fill-opacity="0.6000000238418579" height="29.564634963161424" stroke="#FFFFFF" stroke-width="2" width="154.2337575351641" x="79.0" y="96.62089752176826"/> 
<text fill="#000000" font-size="15.399999999999999" x="85.0" y="114.62089752176826">Deellijn van de top</text>
<rect fill="#FFFFFF" fill-opacity="0.6000000238418579" height="29.56463496316141" stroke="#FFFFFF" stroke-width="2" width="116.21634293369056" x="79.0" y="130.62089752176826"/> 
<text fill="#000000" font-size="15.399999999999999" x="85.0" y="148.62089752176826">Middelloodlijn</text>
<rect fill="#FFFFFF" fill-opacity="0.6000000238418579" height="29.56463496316141" stroke="#FFFFFF" stroke-width="2" width="96.71399866041526" x="79.0" y="164.62089752176826"/> 
<text fill="#000000" font-size="15.399999999999999" x="85.0" y="182.62089752176826">Zwaartelijn</text>
<rect fill="#FFFFFF" fill-opacity="0.6000000238418579" height="29.56463496316141" stroke="#FFFFFF" stroke-width="2" width="88.72739450770263" x="79.0" y="198.62089752176826"/> 
<text fill="#000000" font-size="15.399999999999999" x="85.0" y="216.62089752176826">Hoogtelijn</text>
<path d=" M 231.0 129.62089752176826 L 237.0 135.62089752176826 M 231.0 135.62089752176826 L 237.0 129.62089752176826" fill="none" stroke="#E50000" stroke-width="1.375"/> 
<text fill="#000000" font-size="11.2" x="241.0" y="148.62089752176826">A</text>
<path d=" M 163.0 265.62089752176826 L 169.0 271.62089752176826 M 163.0 271.62089752176826 L 169.0 265.62089752176826" fill="none" stroke="#E50000" stroke-width="1.375"/> 
<text fill="#000000" font-size="11.2" x="173.0" y="284.62089752176826">B</text>
<path d=" M 231.0 265.62089752176826 L 237.0 271.62089752176826 M 231.0 271.62089752176826 L 237.0 265.62089752176826" fill="none" stroke="#E50000" stroke-width="1.375"/> 
<polyline fill="none" points="234.0,401.2417950435365 234.0,0" stroke="#000000" stroke-dasharray="1 6" stroke-dashoffset="0.0" stroke-width="1"/> 
<polyline fill="none" points="234.0,132.62089752176826 166.0,268.62089752176826" stroke="#000000" stroke-dashoffset="0.0" stroke-width="3"/> 
<rect fill="#E50000" height="6.0" width="6.0" x="299.0" y="265.62089752176826"/> 
<text fill="#000000" font-size="11.2" x="309.0" y="284.62089752176826">C</text>
<polyline fill="none" points="234.0,132.62089752176826 302.0,268.62089752176826" stroke="#000000" stroke-dashoffset="0.0" stroke-width="3"/> 
<polyline fill="none" points="166.0,268.62089752176826 302.0,268.62089752176826" stroke="#000000" stroke-dashoffset="0.0" stroke-width="1"/> </svg>