
<svg height="401.2417950435365" version="1.1" width="468.0" xmlns="http://www.w3.org/2000/svg">
<rect fill="#FFFFFF" fill-opacity="0.6000000238418579" height="29.564634963161424" stroke="#FFFFFF" stroke-width="2" width="282.17414601473547" x="96.0" y="62.620897521768256"/> 
<text fill="#000000" font-size="15.399999999999999" x="102.0" y="80.62089752176826">Vierhoek met 2 gelijke evenwijdige </text>
<rect fill="#FFFFFF" fill-opacity="0.6000000238418579" height="29.564634963161424" stroke="#FFFFFF" stroke-width="2" width="66.32217012726056" x="96.0" y="96.62089752176826"/> 
<text fill="#000000" font-size="15.399999999999999" x="102.0" y="114.62089752176826">zijden. </text>
<rect fill="#FFFFFF" fill-opacity="0.6000000238418579" height="29.56463496316141" stroke="#FFFFFF" stroke-width="2" width="238.94775619557947" x="96.0" y="130.62089752176826"/> 
<text fill="#000000" font-size="15.399999999999999" x="102.0" y="148.62089752176826">Overstaande zijden zijn gelijk.</text>
<path d=" M 129.0 231.62089752176826 L 135.0 237.62089752176826 M 129.0 237.62089752176826 L 135.0 231.62089752176826" fill="none" stroke="#E50000" stroke-width="1.375"/> 
<text fill="#000000" font-size="11.2" x="139.0" y="250.62089752176826">A</text>
<path d=" M 333.0 231.62089752176826 L 339.0 237.62089752176826 M 333.0 237.62089752176826 L 339.0 231.62089752176826" fill="none" stroke="#E50000" stroke-width="1.375"/> 
<text fill="#000000" font-size="11.2" x="343.0" y="250.62089752176826">B</text>
<path d=" M 265.0 265.62089752176826 L 271.0 271.62089752176826 M 265.0 271.62089752176826 L 271.0 265.62089752176826" fill="none" stroke="#E50000" stroke-width="1.375"/> 
<text fill="#000000" font-size="11.2" x="275.0" y="284.62089752176826">D</text>
<polyline fill="none" points="132.0,234.62089752176826 336.0,234.62089752176826" stroke="#000000" stroke-dasharray="1 6" stroke-dashoffset="0.0" stroke-width="1"/> 
<rect fill="#E50000" height="6.0" width="6.0" x="231.0" y="231.62089752176826"/> 
<circle cx="234.0" cy="234.62089752176826" fill="none" r="48.083261120685236" stroke="#15B01A" stroke-dashoffset="0.0" stroke-width="1"/> 
<rect fill="#E50000" height="6.0" width="6.0" x="197.0" y="197.62089752176826"/> 
<text fill="#000000" font-size="11.2" x="207.0" y="216.62089752176826">C</text>
<polyline fill="none" points="200.0,200.62089752176826 268.0,268.62089752176826" stroke="#000000" stroke-dasharray="1 6" stroke-dashoffset="0.0" stroke-width="1"/> 
<polyline fill="none" points="132.0,234.62089752176826 200.0,200.62089752176826" stroke="#000000" stroke-dashoffset="0.0" stroke-width="1"/> 
<polyline fill="none" points="200.0,200.62089752176826 336.0,234.62089752176826" stroke="#000000" stroke-dashoffset="0.0" stroke-width="1"/> 
<polyline fill="none" points="336.0,234.62089752176826 268.0,268.62089752176826" stroke="#000000" stroke-dashoffset="0.0" stroke-width="1"/> 
<polyline fill="none" points="268.0,268.62089752176826 132.0,234.62089752176826" stroke="#000000" stroke-dashoffset="0.0" stroke-width="1"/> </svg>