
<svg height="401.2417950435365" version="1.1" width="468.0" xmlns="http://www.w3.org/2000/svg">
<rect fill="#FFFFFF" fill-opacity="0.6000000238418579" height="29.564634963161424" stroke="#FFFFFF" stroke-width="2" width="221.7441393168118" x="96.0" y="62.620897521768256"/> 
<text fill="#000000" font-size="15.399999999999999" x="102.0" y="80.62089752176826">Indien AB:AC:CB=PQ:PR:RQ</text>
<rect fill="#FFFFFF" fill-opacity="0.6000000238418579" height="29.564634963161424" stroke="#FFFFFF" stroke-width="2" width="264.37374413931684" x="96.0" y="96.62089752176826"/> 
<text fill="#000000" font-size="15.399999999999999" x="102.0" y="114.62089752176826">oppABC:oppPQR = AB^2 : PQ ^2</text>
<path d=" M 197.0 197.62089752176826 L 203.0 203.62089752176826 M 197.0 203.62089752176826 L 203.0 197.62089752176826" fill="none" stroke="#E50000" stroke-width="1.375"/> 
<path d=" M 299.0 197.62089752176826 L 305.0 203.62089752176826 M 299.0 203.62089752176826 L 305.0 197.62089752176826" fill="none" stroke="#E50000" stroke-width="1.375"/> 
<text fill="#000000" font-size="11.2" x="309.0" y="216.62089752176826">B</text>
<path d=" M 299.0 95.62089752176826 L 305.0 101.62089752176826 M 299.0 101.62089752176826 L 305.0 95.62089752176826" fill="none" stroke="#E50000" stroke-width="1.375"/> 
<text fill="#000000" font-size="11.2" x="309.0" y="114.62089752176826">C</text>
<path d=" M 197.0 231.62089752176826 L 203.0 237.62089752176826 M 197.0 237.62089752176826 L 203.0 231.62089752176826" fill="none" stroke="#E50000" stroke-width="1.375"/> 
<text fill="#000000" font-size="11.2" x="207.0" y="250.62089752176826">R</text>
<path d=" M 265.0 265.62089752176826 L 271.0 271.62089752176826 M 265.0 271.62089752176826 L 271.0 265.62089752176826" fill="none" stroke="#E50000" stroke-width="1.375"/> 
<polyline fill="none" points="0,200.62089752176826 468.0,200.62089752176826" stroke="#000000" stroke-dashoffset="0.0" stroke-width="1"/> 
<polyline fill="none" points="75.03432685867381,401.2417950435365 375.9656731413262,0" stroke="#000000" stroke-dashoffset="0.0" stroke-width="1"/> 
<polyline fill="none" points="302.0,98.62089752176826 302.0,200.62089752176826" stroke="#000000" stroke-dashoffset="0.0" stroke-width="1"/> 
<polyline fill="none" points="0,268.62089752176826 468.0,268.62089752176826" stroke="#000000" stroke-dashoffset="0.0" stroke-width="1"/> 
<rect fill="#E50000" height="6.0" width="6.0" x="222.5" y="197.62089752176826"/> 
<text fill="#000000" font-size="11.2" x="232.5" y="216.62089752176826">A</text>
<rect fill="#E50000" height="6.0" width="6.0" x="171.5" y="265.62089752176826"/> 
<text fill="#000000" font-size="11.2" x="181.5" y="284.62089752176826">P</text>
<rect fill="#E50000" height="6.0" width="6.0" x="197.0" y="265.62089752176826"/> 
<text fill="#000000" font-size="11.2" x="207.0" y="284.62089752176826">Q</text>
<polyline fill="none" points="200.0,234.62089752176826 200.0,268.62089752176826" stroke="#000000" stroke-dashoffset="0.0" stroke-width="1"/> </svg>