
<svg height="401.2417950435365" version="1.1" width="468.0" xmlns="http://www.w3.org/2000/svg">
<rect fill="#FFFFFF" fill-opacity="0.6000000238418579" height="29.564634963161424" stroke="#FFFFFF" stroke-width="2" width="308.68318821165434" x="96.0" y="96.62089752176826"/> 
<text fill="#000000" font-size="15.399999999999999" x="102.0" y="114.62089752176826">Kwadraat zijde tegenover stompe hoek</text>
<rect fill="#FFFFFF" fill-opacity="0.6000000238418579" height="29.56463496316141" stroke="#FFFFFF" stroke-width="2" width="275.65371734762226" x="96.0" y="130.62089752176826"/> 
<text fill="#000000" font-size="15.399999999999999" x="102.0" y="148.62089752176826">BC^2 = AC^2 + AB^2 + 2AB x AF</text>
<path d=" M 299.0 231.62089752176826 L 305.0 237.62089752176826 M 299.0 237.62089752176826 L 305.0 231.62089752176826" fill="none" stroke="#E50000" stroke-width="1.375"/> 
<text fill="#000000" font-size="11.2" x="309.0" y="250.62089752176826">A</text>
<path d=" M 333.0 231.62089752176826 L 339.0 237.62089752176826 M 333.0 237.62089752176826 L 339.0 231.62089752176826" fill="none" stroke="#E50000" stroke-width="1.375"/> 
<text fill="#000000" font-size="11.2" x="343.0" y="250.62089752176826">B</text>
<path d=" M 197.0 180.62089752176826 L 203.0 186.62089752176826 M 197.0 186.62089752176826 L 203.0 180.62089752176826" fill="none" stroke="#E50000" stroke-width="1.375"/> 
<text fill="#000000" font-size="11.2" x="207.0" y="199.62089752176826">C</text>
<polyline fill="none" points="302.0,234.62089752176826 336.0,234.62089752176826" stroke="#000000" stroke-dashoffset="0.0" stroke-width="1"/> 
<polyline fill="none" points="302.0,234.62089752176826 200.0,183.62089752176826" stroke="#000000" stroke-dashoffset="0.0" stroke-width="1"/> 
<polyline fill="none" points="336.0,234.62089752176826 200.0,183.62089752176826" stroke="#000000" stroke-dashoffset="0.0" stroke-width="1"/> 
<polyline fill="none" points="0,234.62089752176826 468.0,234.62089752176826" stroke="#000000" stroke-dasharray="1 6" stroke-dashoffset="0.0" stroke-width="1"/> 
<rect fill="#E50000" height="6.0" width="6.0" x="197.0" y="231.62089752176826"/> 
<text fill="#000000" font-size="11.2" x="207.0" y="250.62089752176826">F</text>
<polyline fill="none" points="200.0,183.62089752176826 200.0,234.62089752176826" stroke="#000000" stroke-dashoffset="0.0" stroke-width="1"/> 
<path d=" M 210.0 234.62089752176826 L 210.0 224.62089752176826 L 200.0 224.62089752176826" fill="none" stroke="#000000" stroke-width="1"/> 
<text fill="#000000" font-size="11.2" x="215.02335221091965" y="214.8721601802391">90°</text>
<path d=" M 317.0 234.62089752176826 A 15 15 0 0 0 288.58359213500125 227.91269358926888" fill="none" stroke="#000000" stroke-width="1"/> 
<text fill="#000000" font-size="11.2" x="296.8250092854671" y="205.5571828903977">153°</text></svg>