
<svg height="401.2417950435365" version="1.1" width="468.0" xmlns="http://www.w3.org/2000/svg">
<rect fill="#FFFFFF" fill-opacity="0.6000000238418579" height="29.564634963161424" stroke="#FFFFFF" stroke-width="2" width="83.70997990622908" x="79.0" y="62.620897521768256"/> 
<text fill="#000000" font-size="15.399999999999999" x="85.0" y="80.62089752176826">Elke zijde</text>
<rect fill="#FFFFFF" fill-opacity="0.6000000238418579" height="29.564634963161424" stroke="#FFFFFF" stroke-width="2" width="253.02746148693905" x="79.0" y="96.62089752176826"/> 
<text fill="#000000" font-size="15.399999999999999" x="85.0" y="114.62089752176826">&gt; Verschil van de andere zijden</text>
<rect fill="#FFFFFF" fill-opacity="0.6000000238418579" height="29.56463496316141" stroke="#FFFFFF" stroke-width="2" width="118.89082384460818" x="79.0" y="164.62089752176826"/> 
<text fill="#000000" font-size="15.399999999999999" x="85.0" y="182.62089752176826">AB &lt; AC + CB</text>
<rect fill="#FFFFFF" fill-opacity="0.6000000238418579" height="29.56463496316141" stroke="#FFFFFF" stroke-width="2" width="118.89082384460818" x="79.0" y="198.62089752176826"/> 
<text fill="#000000" font-size="15.399999999999999" x="85.0" y="216.62089752176826">AB - CB &lt; AC</text>
<path d=" M 163.0 333.62089752176826 L 169.0 339.62089752176826 M 163.0 339.62089752176826 L 169.0 333.62089752176826" fill="none" stroke="#E50000" stroke-width="1.375"/> 
<text fill="#000000" font-size="11.2" x="173.0" y="352.62089752176826">A</text>
<path d=" M 333.0 333.62089752176826 L 339.0 339.62089752176826 M 333.0 339.62089752176826 L 339.0 333.62089752176826" fill="none" stroke="#E50000" stroke-width="1.375"/> 
<text fill="#000000" font-size="11.2" x="343.0" y="352.62089752176826">B</text>
<path d=" M 265.0 265.62089752176826 L 271.0 271.62089752176826 M 265.0 271.62089752176826 L 271.0 265.62089752176826" fill="none" stroke="#E50000" stroke-width="1.375"/> 
<text fill="#000000" font-size="11.2" x="275.0" y="284.62089752176826">C</text>
<polyline fill="none" points="166.0,336.62089752176826 336.0,336.62089752176826" stroke="#000000" stroke-dashoffset="0.0" stroke-width="1"/> 
<polyline fill="none" points="166.0,336.62089752176826 268.0,268.62089752176826" stroke="#000000" stroke-dashoffset="0.0" stroke-width="1"/> 
<polyline fill="none" points="336.0,336.62089752176826 268.0,268.62089752176826" stroke="#000000" stroke-dashoffset="0.0" stroke-width="1"/> </svg>