
<svg height="401.2417950435365" version="1.1" width="468.0" xmlns="http://www.w3.org/2000/svg">
<rect fill="#FFFFFF" fill-opacity="0.6000000238418579" height="29.564634963161424" stroke="#FFFFFF" stroke-width="2" width="236.4869390488949" x="96.0" y="62.620897521768256"/> 
<text fill="#000000" font-size="15.399999999999999" x="102.0" y="80.62089752176826">Gelijke bogen gelijke koorden</text>
<path d=" M 163.0 197.62089752176826 L 169.0 203.62089752176826 M 163.0 203.62089752176826 L 169.0 197.62089752176826" fill="none" stroke="#E50000" stroke-width="1.375"/> 
<text fill="#000000" font-size="11.2" x="173.0" y="216.62089752176826">A</text>
<path d=" M 231.0 95.62089752176826 L 237.0 101.62089752176826 M 231.0 101.62089752176826 L 237.0 95.62089752176826" fill="none" stroke="#E50000" stroke-width="1.375"/> 
<path d=" M 333.0 197.62089752176826 L 339.0 203.62089752176826 M 333.0 203.62089752176826 L 339.0 197.62089752176826" fill="none" stroke="#E50000" stroke-width="1.375"/> 
<path d=" M 231.0 299.62089752176826 L 237.0 305.62089752176826 M 231.0 305.62089752176826 L 237.0 299.62089752176826" fill="none" stroke="#E50000" stroke-width="1.375"/> 
<polyline fill="none" points="0,200.62089752176826 468.0,200.62089752176826" stroke="#000000" stroke-dashoffset="0.0" stroke-width="1"/> 
<polyline fill="none" points="234.0,401.2417950435365 234.0,0" stroke="#000000" stroke-dashoffset="0.0" stroke-width="1"/> 
<rect fill="#E50000" height="6.0" width="6.0" x="231.0" y="197.62089752176826"/> 
<text fill="#000000" font-size="11.2" x="241.0" y="216.62089752176826">S</text>
<path d=" M 244.0 200.62089752176826 L 244.0 190.62089752176826 L 234.0 190.62089752176826" fill="none" stroke="#000000" stroke-width="1"/> 
<text fill="#000000" font-size="11.2" x="249.02335221091963" y="180.8721601802391">90°</text>
<path d=" M 224.0 200.62089752176826 L 224.0 210.62089752176826 L 234.0 210.62089752176826" fill="none" stroke="#000000" stroke-width="1"/> 
<text fill="#000000" font-size="11.2" x="199.52587752786133" y="230.36963486329742">90°</text>
<circle cx="234.0" cy="200.62089752176826" fill="none" r="68.0" stroke="#000000" stroke-dashoffset="0.0" stroke-width="1"/> 
<rect fill="#E50000" height="6.0" width="6.0" x="231.0" y="129.62089752176826"/> 
<text fill="#000000" font-size="11.2" x="241.0" y="148.62089752176826">B</text>
<rect fill="#E50000" height="6.0" width="6.0" x="231.0" y="265.62089752176826"/> 
<text fill="#000000" font-size="11.2" x="241.0" y="284.62089752176826">D</text>
<rect fill="#E50000" height="6.0" width="6.0" x="299.0" y="197.62089752176826"/> 
<text fill="#000000" font-size="11.2" x="309.0" y="216.62089752176826">C</text>
<path d=" M 166.0 200.62089752176826 A 68.0 68.0 0 0 0 233.99999999999997 268.62089752176826" fill="none" stroke="#000000" stroke-dashoffset="0.0" stroke-width="3"/> 
<path d=" M 302.0 200.62089752176826 A 68.0 68.0 0 0 0 234.0 132.62089752176826" fill="none" stroke="#000000" stroke-dashoffset="0.0" stroke-width="3"/> 
<polyline fill="none" points="166.0,200.62089752176826 234.0,268.62089752176826" stroke="#000000" stroke-dashoffset="0.0" stroke-width="3"/> 
<polyline fill="none" points="234.0,132.62089752176826 302.0,200.62089752176826" stroke="#000000" stroke-dashoffset="0.0" stroke-width="3"/> </svg>