
<svg height="401.2417950435365" version="1.1" width="468.0" xmlns="http://www.w3.org/2000/svg">
<rect fill="#FFFFFF" fill-opacity="0.6000000238418579" height="29.564634963161424" stroke="#FFFFFF" stroke-width="2" width="42.15606162089753" x="96.0" y="62.620897521768256"/> 
<text fill="#000000" font-size="15.399999999999999" x="102.0" y="80.62089752176826">Ruit</text>
<rect fill="#FFFFFF" fill-opacity="0.6000000238418579" height="29.564634963161424" stroke="#FFFFFF" stroke-width="2" width="187.65371734762232" x="96.0" y="96.62089752176826"/> 
<text fill="#000000" font-size="15.399999999999999" x="102.0" y="114.62089752176826">Diagonalen zijn deellijn</text>
<rect fill="#FFFFFF" fill-opacity="0.6000000238418579" height="29.56463496316141" stroke="#FFFFFF" stroke-width="2" width="180.61754855994644" x="96.0" y="130.62089752176826"/> 
<text fill="#000000" font-size="15.399999999999999" x="102.0" y="148.62089752176826">Hoogtelijn, zwaartelijn</text>
<rect fill="#FFFFFF" fill-opacity="0.6000000238418579" height="29.56463496316141" stroke="#FFFFFF" stroke-width="2" width="116.21634293369056" x="96.0" y="164.62089752176826"/> 
<text fill="#000000" font-size="15.399999999999999" x="102.0" y="182.62089752176826">Middelloodlijn</text>
<path d=" M 163.0 197.62089752176826 L 169.0 203.62089752176826 M 163.0 203.62089752176826 L 169.0 197.62089752176826" fill="none" stroke="#E50000" stroke-width="1.375"/> 
<text fill="#000000" font-size="11.2" x="173.0" y="216.62089752176826">A</text>
<path d=" M 367.0 197.62089752176826 L 373.0 203.62089752176826 M 367.0 203.62089752176826 L 373.0 197.62089752176826" fill="none" stroke="#E50000" stroke-width="1.375"/> 
<text fill="#000000" font-size="11.2" x="377.0" y="216.62089752176826">B</text>
<path d=" M 299.0 129.62089752176826 L 305.0 135.62089752176826 M 299.0 135.62089752176826 L 305.0 129.62089752176826" fill="none" stroke="#E50000" stroke-width="1.375"/> 
<text fill="#000000" font-size="11.2" x="309.0" y="148.62089752176826">C</text>
<path d=" M 231.0 299.62089752176826 L 237.0 305.62089752176826 M 231.0 305.62089752176826 L 237.0 299.62089752176826" fill="none" stroke="#E50000" stroke-width="1.375"/> 
<text fill="#000000" font-size="11.2" x="241.0" y="318.62089752176826">D</text>
<path d=" M 265.0 265.62089752176826 L 271.0 271.62089752176826 M 265.0 271.62089752176826 L 271.0 265.62089752176826" fill="none" stroke="#E50000" stroke-width="1.375"/> 
<text fill="#000000" font-size="11.2" x="275.0" y="284.62089752176826">E</text>
<polyline fill="none" points="0,200.62089752176826 468.0,200.62089752176826" stroke="#000000" stroke-dashoffset="0.0" stroke-width="1"/> 
<polyline fill="none" points="194.55164099129274,401.2417950435365 355.04835900870734,0" stroke="#000000" stroke-dashoffset="0.0" stroke-width="1"/> 
<polyline fill="none" points="0,268.62089752176826 468.0,268.62089752176826" stroke="#000000" stroke-dashoffset="0.0" stroke-width="1"/> 
<rect fill="#E50000" height="6.0" width="6.0" x="271.8" y="197.62089752176826"/> 
<text fill="#000000" font-size="11.2" x="281.8" y="216.62089752176826">S</text>
<rect fill="#E50000" height="6.0" width="6.0" x="244.6" y="265.62089752176826"/> 
<text fill="#000000" font-size="11.2" x="254.6" y="284.62089752176826">T</text>
<rect fill="#E50000" height="6.0" width="6.0" x="345.03824137702924" y="197.62089752176826"/> 
<text fill="#000000" font-size="11.2" x="355.03824137702924" y="216.62089752176826">U</text>
<polyline fill="none" points="267.78988236832197,401.2417950435365 428.28660038573656,0" stroke="#000000" stroke-dashoffset="0.0" stroke-width="1"/> 
<rect fill="#E50000" height="6.0" width="6.0" x="317.83824137702925" y="265.62089752176826"/> 
<text fill="#000000" font-size="11.2" x="327.83824137702925" y="284.62089752176826">R</text>
<polyline fill="none" points="247.6,268.62089752176826 348.03824137702924,200.62089752176826" stroke="#000000" stroke-dasharray="1 6" stroke-dashoffset="0.0" stroke-width="1"/> 
<polyline fill="none" points="274.8,200.62089752176826 320.83824137702925,268.62089752176826" stroke="#000000" stroke-dasharray="1 6" stroke-dashoffset="0.0" stroke-width="1"/> 
<rect fill="#E50000" height="6.0" width="6.0" x="294.81912068851466" y="231.62089752176826"/> 
<path d=" M 306.0997929932074 229.01460942871643 L 300.4935049001556 220.7339371240237 L 292.2128325954628 226.34022521707553" fill="none" stroke="#000000" stroke-width="1"/> 
<text fill="#000000" font-size="11.2" x="294.7124987983284" y="205.25242398616848">90°</text></svg>