
<svg height="401.2417950435365" version="1.1" width="468.0" xmlns="http://www.w3.org/2000/svg">
<rect fill="#FFFFFF" fill-opacity="0.6000000238418579" height="29.564634963161424" stroke="#FFFFFF" stroke-width="2" width="153.43804420629607" x="96.0" y="62.620897521768256"/> 
<text fill="#000000" font-size="15.399999999999999" x="102.0" y="80.62089752176826">Snijdende koorden</text>
<rect fill="#FFFFFF" fill-opacity="0.6000000238418579" height="29.564634963161424" stroke="#FFFFFF" stroke-width="2" width="206.12458137977228" x="96.0" y="96.62089752176826"/> 
<text fill="#000000" font-size="15.399999999999999" x="102.0" y="114.62089752176826">Gelijkvormige driehoeken</text>
<rect fill="#FFFFFF" fill-opacity="0.6000000238418579" height="29.56463496316141" stroke="#FFFFFF" stroke-width="2" width="115.9511051574012" x="96.0" y="130.62089752176826"/> 
<text fill="#000000" font-size="15.399999999999999" x="102.0" y="148.62089752176826">AS:CS=SD:SB</text>
<path d=" M 129.0 197.62089752176826 L 135.0 203.62089752176826 M 129.0 203.62089752176826 L 135.0 197.62089752176826" fill="none" stroke="#E50000" stroke-width="1.375"/> 
<path d=" M 231.0 231.62089752176826 L 237.0 237.62089752176826 M 231.0 237.62089752176826 L 237.0 231.62089752176826" fill="none" stroke="#E50000" stroke-width="1.375"/> 
<text fill="#000000" font-size="11.2" x="241.0" y="250.62089752176826">M</text>
<path d=" M 197.0 299.62089752176826 L 203.0 305.62089752176826 M 197.0 305.62089752176826 L 203.0 299.62089752176826" fill="none" stroke="#E50000" stroke-width="1.375"/> 
<text fill="#000000" font-size="11.2" x="207.0" y="318.62089752176826">R</text>
<path d=" M 333.0 197.62089752176826 L 339.0 203.62089752176826 M 333.0 203.62089752176826 L 339.0 197.62089752176826" fill="none" stroke="#E50000" stroke-width="1.375"/> 
<path d=" M 299.0 129.62089752176826 L 305.0 135.62089752176826 M 299.0 135.62089752176826 L 305.0 129.62089752176826" fill="none" stroke="#E50000" stroke-width="1.375"/> 
<path d=" M 129.0 265.62089752176826 L 135.0 271.62089752176826 M 129.0 271.62089752176826 L 135.0 265.62089752176826" fill="none" stroke="#E50000" stroke-width="1.375"/> 
<circle cx="234.0" cy="234.62089752176826" fill="none" r="76.02631123499285" stroke="#000000" stroke-dasharray="1 6" stroke-dashoffset="0.0" stroke-width="1"/> 
<rect fill="#E50000" height="6.0" width="6.0" x="163.0" y="197.62089752176826"/> 
<text fill="#000000" font-size="11.2" x="173.0" y="216.62089752176826">A</text>
<rect fill="#E50000" height="6.0" width="6.0" x="299.0" y="197.62089752176826"/> 
<text fill="#000000" font-size="11.2" x="309.0" y="216.62089752176826">B</text>
<rect fill="#E50000" height="6.0" width="6.0" x="155.9926995254767" y="244.0267379013869"/> 
<text fill="#000000" font-size="11.2" x="165.9926995254767" y="263.0267379013869">D</text>
<rect fill="#E50000" height="6.0" width="6.0" x="259.56827608427943" y="161.16627665434473"/> 
<text fill="#000000" font-size="11.2" x="269.56827608427943" y="180.16627665434473">C</text>
<polyline fill="none" points="158.9926995254767,247.0267379013869 262.56827608427943,164.16627665434473" stroke="#000000" stroke-dashoffset="0.0" stroke-width="3"/> 
<polyline fill="none" points="166.0,200.62089752176826 302.0,200.62089752176826" stroke="#000000" stroke-dashoffset="0.0" stroke-width="3"/> 
<rect fill="#E50000" height="6.0" width="6.0" x="214.0" y="197.62089752176826"/> 
<text fill="#000000" font-size="11.2" x="224.0" y="216.62089752176826">S</text>
<polyline fill="none" points="166.0,200.62089752176826 158.9926995254767,247.0267379013869" stroke="#000000" stroke-dashoffset="0.0" stroke-width="3"/> 
<polyline fill="none" points="262.56827608427943,164.16627665434473 302.0,200.62089752176826" stroke="#000000" stroke-dashoffset="0.0" stroke-width="3"/> 
<path d=" M 262.56827608427943 164.1662766543447 A 76.02631123499287 76.02631123499287 0 0 0 166.0 200.62089752176823" fill="none" stroke="#15B01A" stroke-dashoffset="0.0" stroke-width="1"/> 
<path d=" M 170.70573166712217 237.65631218807053 A 15 15 0 0 0 161.23231654962478 232.19487640037678" fill="none" stroke="#000000" stroke-width="1"/> 
<text fill="#000000" font-size="11.2" x="166.74800316906584" y="221.7047076266905">43°</text>
<path d=" M 290.985762495051 190.43823715305444 A 15 15 0 0 0 287.0 200.62089752176826" fill="none" stroke="#000000" stroke-width="1"/> 
<text fill="#000000" font-size="11.2" x="259.68246809363967" y="192.8634695463527">43°</text></svg>