
<svg height="401.2417950435365" version="1.1" width="468.0" xmlns="http://www.w3.org/2000/svg">
<rect fill="#FFFFFF" fill-opacity="0.6000000238418579" height="29.564634963161424" stroke="#FFFFFF" stroke-width="2" width="129.6034829202947" x="96.0" y="62.620897521768256"/> 
<text fill="#000000" font-size="15.399999999999999" x="102.0" y="80.62089752176826">Evenwijdige lijn</text>
<rect fill="#FFFFFF" fill-opacity="0.6000000238418579" height="29.564634963161424" stroke="#FFFFFF" stroke-width="2" width="161.8888144675151" x="96.0" y="96.62089752176826"/> 
<text fill="#000000" font-size="15.399999999999999" x="102.0" y="114.62089752176826">Evenredige stukken</text>
<rect fill="#FFFFFF" fill-opacity="0.6000000238418579" height="29.56463496316141" stroke="#FFFFFF" stroke-width="2" width="128.10046885465505" x="96.0" y="130.62089752176826"/> 
<text fill="#000000" font-size="15.399999999999999" x="102.0" y="148.62089752176826">AP:PC = BQ:QC</text>
<rect fill="#FFFFFF" fill-opacity="0.6000000238418579" height="29.56463496316141" stroke="#FFFFFF" stroke-width="2" width="128.19624916275956" x="96.0" y="164.62089752176826"/> 
<text fill="#000000" font-size="15.399999999999999" x="102.0" y="182.62089752176826">AC:BC = PC:QC</text>
<path d=" M 197.0 265.62089752176826 L 203.0 271.62089752176826 M 197.0 271.62089752176826 L 203.0 265.62089752176826" fill="none" stroke="#E50000" stroke-width="1.375"/> 
<text fill="#000000" font-size="11.2" x="207.0" y="284.62089752176826">A</text>
<path d=" M 367.0 265.62089752176826 L 373.0 271.62089752176826 M 367.0 271.62089752176826 L 373.0 265.62089752176826" fill="none" stroke="#E50000" stroke-width="1.375"/> 
<text fill="#000000" font-size="11.2" x="377.0" y="284.62089752176826">B</text>
<path d=" M 299.0 129.62089752176826 L 305.0 135.62089752176826 M 299.0 135.62089752176826 L 305.0 129.62089752176826" fill="none" stroke="#E50000" stroke-width="1.375"/> 
<text fill="#000000" font-size="11.2" x="309.0" y="148.62089752176826">C</text>
<path d=" M 129.0 197.62089752176826 L 135.0 203.62089752176826 M 129.0 203.62089752176826 L 135.0 197.62089752176826" fill="none" stroke="#E50000" stroke-width="1.375"/> 
<polyline fill="none" points="200.0,268.62089752176826 370.0,268.62089752176826" stroke="#000000" stroke-dashoffset="0.0" stroke-width="1"/> 
<polyline fill="none" points="370.0,268.62089752176826 302.0,132.62089752176826" stroke="#000000" stroke-dashoffset="0.0" stroke-width="1"/> 
<polyline fill="none" points="200.0,268.62089752176826 302.0,132.62089752176826" stroke="#000000" stroke-dashoffset="0.0" stroke-width="1"/> 
<polyline fill="none" points="0,200.62089752176826 468.0,200.62089752176826" stroke="#000000" stroke-dashoffset="0.0" stroke-width="1"/> 
<rect fill="#E50000" height="6.0" width="6.0" x="248.0" y="197.62089752176826"/> 
<text fill="#000000" font-size="11.2" x="258.0" y="216.62089752176826">P</text>
<rect fill="#E50000" height="6.0" width="6.0" x="333.0" y="197.62089752176826"/> 
<text fill="#000000" font-size="11.2" x="343.0" y="216.62089752176826">Q</text></svg>