
<svg height="401.2417950435365" version="1.1" width="468.0" xmlns="http://www.w3.org/2000/svg">
<rect fill="#FFFFFF" fill-opacity="0.6000000238418579" height="29.564634963161424" stroke="#FFFFFF" stroke-width="2" width="68.51774949765573" x="96.0" y="62.620897521768256"/> 
<text fill="#000000" font-size="15.399999999999999" x="102.0" y="80.62089752176826">Deellijn</text>
<rect fill="#FFFFFF" fill-opacity="0.6000000238418579" height="29.564634963161424" stroke="#FFFFFF" stroke-width="2" width="161.8888144675151" x="96.0" y="96.62089752176826"/> 
<text fill="#000000" font-size="15.399999999999999" x="102.0" y="114.62089752176826">Evenredige stukken</text>
<rect fill="#FFFFFF" fill-opacity="0.6000000238418579" height="29.56463496316141" stroke="#FFFFFF" stroke-width="2" width="120.22438044206297" x="96.0" y="130.62089752176826"/> 
<text fill="#000000" font-size="15.399999999999999" x="102.0" y="148.62089752176826">AP:PB= AC:BC</text>
<path d=" M 197.0 265.62089752176826 L 203.0 271.62089752176826 M 197.0 271.62089752176826 L 203.0 265.62089752176826" fill="none" stroke="#E50000" stroke-width="1.375"/> 
<text fill="#000000" font-size="11.2" x="207.0" y="284.62089752176826">A</text>
<path d=" M 367.0 265.62089752176826 L 373.0 271.62089752176826 M 367.0 271.62089752176826 L 373.0 265.62089752176826" fill="none" stroke="#E50000" stroke-width="1.375"/> 
<text fill="#000000" font-size="11.2" x="377.0" y="284.62089752176826">B</text>
<path d=" M 248.0 180.62089752176826 L 254.0 186.62089752176826 M 248.0 186.62089752176826 L 254.0 180.62089752176826" fill="none" stroke="#E50000" stroke-width="1.375"/> 
<text fill="#000000" font-size="11.2" x="258.0" y="199.62089752176826">C</text>
<polyline fill="none" points="200.0,268.62089752176826 370.0,268.62089752176826" stroke="#000000" stroke-dashoffset="0.0" stroke-width="1"/> 
<polyline fill="none" points="370.0,268.62089752176826 251.0,183.62089752176826" stroke="#000000" stroke-dashoffset="0.0" stroke-width="1"/> 
<polyline fill="none" points="200.0,268.62089752176826 251.0,183.62089752176826" stroke="#000000" stroke-dashoffset="0.0" stroke-width="1"/> 
<path d=" M 243.2825636685871 196.48329140745642 A 15 15 0 0 0 263.20600206810104 192.33947042755472" fill="none" stroke="#000000" stroke-width="1"/> 
<text fill="#000000" font-size="11.2" x="248.40164724934314" y="222.8875782693269">85°</text>
<polyline fill="none" points="296.26237001529546,401.2417950435365 212.80919617179882,0" stroke="#000000" stroke-dashoffset="0.0" stroke-width="1"/> 
<rect fill="#E50000" height="6.0" width="6.0" x="265.6789154677357" y="265.62089752176826"/> 
<text fill="#000000" font-size="11.2" x="275.6789154677357" y="284.62089752176826">P</text>
<polyline fill="none" points="397.5834545475597,401.2417950435365 314.13028070406307,0" stroke="#15B01A" stroke-dashoffset="0.0" stroke-width="1"/> 
<polyline fill="none" points="120.42746148693905,401.2417950435365 361.17253851306094,0" stroke="#000000" stroke-dasharray="1 6" stroke-dashoffset="0.0" stroke-width="1"/> 
<rect fill="#E50000" height="6.0" width="6.0" x="323.2396172239067" y="55.22153548192378"/> 
<text fill="#000000" font-size="11.2" x="333.2396172239067" y="74.22153548192378">Q</text>
<path d=" M 318.5221808924938 71.08392936761194 A 15 15 0 0 0 329.2940596724578 72.90725580230605" fill="none" stroke="#000000" stroke-width="1"/> 
<text fill="#000000" font-size="11.2" x="310.67296717436346" y="97.73065926313322">43°</text>
<path d=" M 366.9455575514488 253.93517720138598 A 15 15 0 0 0 357.79399793189896 259.9023246159818" fill="none" stroke="#000000" stroke-width="1"/> 
<text fill="#000000" font-size="11.2" x="341.15807698799233" y="244.30267828135277">43°</text></svg>