
<svg height="401.2417950435365" version="1.1" width="468.0" xmlns="http://www.w3.org/2000/svg">
<rect fill="#FFFFFF" fill-opacity="0.6000000238418579" height="29.564634963161424" stroke="#FFFFFF" stroke-width="2" width="104.82585398526459" x="96.0" y="62.620897521768256"/> 
<text fill="#000000" font-size="15.399999999999999" x="102.0" y="80.62089752176826">Oppervlakte</text>
<rect fill="#FFFFFF" fill-opacity="0.6000000238418579" height="29.564634963161424" stroke="#FFFFFF" stroke-width="2" width="258.1774949765572" x="96.0" y="96.62089752176826"/> 
<text fill="#000000" font-size="15.399999999999999" x="102.0" y="114.62089752176826">Helft Basis x Hoogte 1/2 AB x CP</text>
<path d=" M 129.0 299.62089752176826 L 135.0 305.62089752176826 M 129.0 305.62089752176826 L 135.0 299.62089752176826" fill="none" stroke="#E50000" stroke-width="1.375"/> 
<text fill="#000000" font-size="11.2" x="139.0" y="318.62089752176826">A</text>
<path d=" M 265.0 299.62089752176826 L 271.0 305.62089752176826 M 265.0 305.62089752176826 L 271.0 299.62089752176826" fill="none" stroke="#E50000" stroke-width="1.375"/> 
<text fill="#000000" font-size="11.2" x="275.0" y="318.62089752176826">B</text>
<path d=" M 231.0 231.62089752176826 L 237.0 237.62089752176826 M 231.0 237.62089752176826 L 237.0 231.62089752176826" fill="none" stroke="#E50000" stroke-width="1.375"/> 
<text fill="#000000" font-size="11.2" x="241.0" y="250.62089752176826">C</text>
<polyline fill="none" points="132.0,302.62089752176826 268.0,302.62089752176826" stroke="#000000" stroke-dashoffset="0.0" stroke-width="1"/> 
<polyline fill="none" points="268.0,302.62089752176826 234.0,234.62089752176826" stroke="#000000" stroke-dashoffset="0.0" stroke-width="1"/> 
<polyline fill="none" points="132.0,302.62089752176826 234.0,234.62089752176826" stroke="#000000" stroke-dashoffset="0.0" stroke-width="1"/> 
<polyline fill="none" points="234.0,401.2417950435365 234.0,0" stroke="#000000" stroke-dasharray="1 6" stroke-dashoffset="0.0" stroke-width="1"/> 
<rect fill="#E50000" height="6.0" width="6.0" x="231.0" y="299.62089752176826"/> 
<text fill="#000000" font-size="11.2" x="241.0" y="318.62089752176826">P</text>
<polyline fill="none" points="0,234.62089752176826 468.0,234.62089752176826" stroke="#000000" stroke-dasharray="1 6" stroke-dashoffset="0.0" stroke-width="1"/> 
<polyline fill="none" points="120.06865371734763,401.2417950435365 468.0,169.2875641884349" stroke="#000000" stroke-dasharray="1 6" stroke-dashoffset="0.0" stroke-width="1"/> 
<rect fill="#E50000" height="6.0" width="6.0" x="367.0" y="231.62089752176826"/> 
<text fill="#000000" font-size="11.2" x="377.0" y="250.62089752176826">Q</text></svg>