
<svg height="401.2417950435365" version="1.1" width="468.0" xmlns="http://www.w3.org/2000/svg">
<rect fill="#FFFFFF" fill-opacity="0.6000000238418579" height="29.564634963161424" stroke="#FFFFFF" stroke-width="2" width="115.5606162089752" x="96.0" y="62.620897521768256"/> 
<text fill="#000000" font-size="15.399999999999999" x="102.0" y="80.62089752176826">Zwaartelijnen</text>
<rect fill="#FFFFFF" fill-opacity="0.6000000238418579" height="29.564634963161424" stroke="#FFFFFF" stroke-width="2" width="243.50837240455462" x="96.0" y="96.62089752176826"/> 
<text fill="#000000" font-size="15.399999999999999" x="102.0" y="114.62089752176826">Verdelen elkaar in stukken 2:1</text>
<path d=" M 197.0 265.62089752176826 L 203.0 271.62089752176826 M 197.0 271.62089752176826 L 203.0 265.62089752176826" fill="none" stroke="#E50000" stroke-width="1.375"/> 
<text fill="#000000" font-size="11.2" x="207.0" y="284.62089752176826">A</text>
<path d=" M 367.0 265.62089752176826 L 373.0 271.62089752176826 M 367.0 271.62089752176826 L 373.0 265.62089752176826" fill="none" stroke="#E50000" stroke-width="1.375"/> 
<text fill="#000000" font-size="11.2" x="377.0" y="284.62089752176826">B</text>
<path d=" M 299.0 129.62089752176826 L 305.0 135.62089752176826 M 299.0 135.62089752176826 L 305.0 129.62089752176826" fill="none" stroke="#E50000" stroke-width="1.375"/> 
<text fill="#000000" font-size="11.2" x="309.0" y="148.62089752176826">C</text>
<rect fill="#E50000" height="6.0" width="6.0" x="248.0" y="197.62089752176826"/> 
<text fill="#000000" font-size="11.2" x="258.0" y="216.62089752176826">E</text>
<rect fill="#E50000" height="6.0" width="6.0" x="333.0" y="197.62089752176826"/> 
<text fill="#000000" font-size="11.2" x="343.0" y="216.62089752176826">D</text>
<polyline fill="none" points="200.0,268.62089752176826 370.0,268.62089752176826" stroke="#000000" stroke-dashoffset="0.0" stroke-width="1"/> 
<polyline fill="none" points="370.0,268.62089752176826 302.0,132.62089752176826" stroke="#000000" stroke-dashoffset="0.0" stroke-width="1"/> 
<polyline fill="none" points="200.0,268.62089752176826 302.0,132.62089752176826" stroke="#000000" stroke-dashoffset="0.0" stroke-width="1"/> 
<polyline fill="none" points="0,57.19232609319684 468.0,324.6208975217683" stroke="#000000" stroke-dashoffset="0.0" stroke-width="1"/> 
<polyline fill="none" points="0,368.62089752176826 468.0,134.62089752176828" stroke="#000000" stroke-dashoffset="0.0" stroke-width="1"/> 
<polyline fill="none" points="0,200.62089752176826 468.0,200.62089752176826" stroke="#15B01A" stroke-dashoffset="0.0" stroke-width="1"/> 
<rect fill="#E50000" height="6.0" width="6.0" x="287.6666666666667" y="220.2875641884349"/> 
<text fill="#000000" font-size="11.2" x="297.6666666666667" y="239.2875641884349">Z</text>
<path d=" M 264.0236471318669 208.06298159712077 A 15 15 0 0 0 266.0 200.62089752176826" fill="none" stroke="#000000" stroke-width="1"/> 
<text fill="#000000" font-size="11.2" x="275.1021025761539" y="214.6042752522641">30째</text>
<path d=" M 321.0 200.62089752176826 A 15 15 0 0 0 322.58359213500125 207.32910145426763" fill="none" stroke="#000000" stroke-width="1"/> 
<text fill="#000000" font-size="11.2" x="292.2109002380199" y="213.6622497409259">27째</text>
<path d=" M 215.0 268.62089752176826 A 15 15 0 0 0 213.41640786499875 261.9126935892689" fill="none" stroke="#000000" stroke-width="1"/> 
<text fill="#000000" font-size="11.2" x="224.33832950076103" y="265.5795453026106">27째</text>
<path d=" M 356.9763528681331 261.17881344641575 A 15 15 0 0 0 355.0 268.62089752176826" fill="none" stroke="#000000" stroke-width="1"/> 
<text fill="#000000" font-size="11.2" x="326.447127162627" y="264.63751979127244">30째</text></svg>