
<svg height="401.2417950435365" version="1.1" width="468.0" xmlns="http://www.w3.org/2000/svg">
<rect fill="#FFFFFF" fill-opacity="0.6000000238418579" height="29.564634963161424" stroke="#FFFFFF" stroke-width="2" width="279.21232417950444" x="96.0" y="62.620897521768256"/> 
<text fill="#000000" font-size="15.399999999999999" x="102.0" y="80.62089752176826">Vierhoek met 4 gelijke zijden is ruit</text>
<rect fill="#FFFFFF" fill-opacity="0.6000000238418579" height="29.564634963161424" stroke="#FFFFFF" stroke-width="2" width="281.8204956463497" x="96.0" y="96.62089752176826"/> 
<text fill="#000000" font-size="15.399999999999999" x="102.0" y="114.62089752176826">Indien rechte hoeken, een vierkant.</text>
<path d=" M 129.0 231.62089752176826 L 135.0 237.62089752176826 M 129.0 237.62089752176826 L 135.0 231.62089752176826" fill="none" stroke="#E50000" stroke-width="1.375"/> 
<text fill="#000000" font-size="11.2" x="139.0" y="250.62089752176826">A</text>
<path d=" M 333.0 231.62089752176826 L 339.0 237.62089752176826 M 333.0 237.62089752176826 L 339.0 231.62089752176826" fill="none" stroke="#E50000" stroke-width="1.375"/> 
<text fill="#000000" font-size="11.2" x="343.0" y="250.62089752176826">B</text>
<path d=" M 265.0 265.62089752176826 L 271.0 271.62089752176826 M 265.0 271.62089752176826 L 271.0 265.62089752176826" fill="none" stroke="#E50000" stroke-width="1.375"/> 
<text fill="#000000" font-size="11.2" x="275.0" y="284.62089752176826">E</text>
<polyline fill="none" points="132.0,234.62089752176826 336.0,234.62089752176826" stroke="#000000" stroke-dasharray="1 6" stroke-dashoffset="0.0" stroke-width="1"/> 
<rect fill="#E50000" height="6.0" width="6.0" x="231.0" y="231.62089752176826"/> 
<circle cx="234.0" cy="234.62089752176826" fill="none" r="48.083261120685236" stroke="#15B01A" stroke-dashoffset="0.0" stroke-width="1"/> 
<rect fill="#E50000" height="6.0" width="6.0" x="231.0" y="279.7041586424535"/> 
<text fill="#000000" font-size="11.2" x="241.0" y="298.7041586424535">C</text>
<rect fill="#E50000" height="6.0" width="6.0" x="231.0" y="183.53763640108303"/> 
<text fill="#000000" font-size="11.2" x="241.0" y="202.53763640108303">D</text>
<polyline fill="none" points="234.0,282.7041586424535 234.0,186.53763640108303" stroke="#000000" stroke-dasharray="1 6" stroke-dashoffset="0.0" stroke-width="1"/> 
<polyline fill="none" points="132.0,234.62089752176826 234.0,282.7041586424535" stroke="#000000" stroke-dashoffset="0.0" stroke-width="1"/> 
<polyline fill="none" points="234.0,282.7041586424535 336.0,234.62089752176826" stroke="#000000" stroke-dashoffset="0.0" stroke-width="1"/> 
<polyline fill="none" points="336.0,234.62089752176826 234.0,186.53763640108303" stroke="#000000" stroke-dashoffset="0.0" stroke-width="1"/> 
<polyline fill="none" points="234.0,186.53763640108303 132.0,234.62089752176826" stroke="#000000" stroke-dashoffset="0.0" stroke-width="1"/> 
<path d=" M 247.56801050599935 276.30813715178516 A 15 15 0 0 0 220.43198949400065 276.30813715178516" fill="none" stroke="#000000" stroke-width="1"/> 
<text fill="#000000" font-size="11.2" x="220.78365706630944" y="252.70415864245348">130°</text></svg>