
<svg height="401.2417950435365" version="1.1" width="468.0" xmlns="http://www.w3.org/2000/svg">
<rect fill="#FFFFFF" fill-opacity="0.6000000238418579" height="29.564634963161424" stroke="#FFFFFF" stroke-width="2" width="274.5190890823845" x="96.0" y="96.62089752176826"/> 
<text fill="#000000" font-size="15.399999999999999" x="102.0" y="114.62089752176826">Snijpunt van twee buitendeellijnen</text>
<rect fill="#FFFFFF" fill-opacity="0.6000000238418579" height="29.56463496316141" stroke="#FFFFFF" stroke-width="2" width="99.49162759544538" x="96.0" y="130.62089752176826"/> 
<text fill="#000000" font-size="15.399999999999999" x="102.0" y="148.62089752176826">Met deellijn</text>
<path d=" M 197.0 231.62089752176826 L 203.0 237.62089752176826 M 197.0 237.62089752176826 L 203.0 231.62089752176826" fill="none" stroke="#E50000" stroke-width="1.375"/> 
<text fill="#000000" font-size="11.2" x="207.0" y="250.62089752176826">A</text>
<path d=" M 197.0 146.62089752176826 L 203.0 152.62089752176826 M 197.0 152.62089752176826 L 203.0 146.62089752176826" fill="none" stroke="#E50000" stroke-width="1.375"/> 
<text fill="#000000" font-size="11.2" x="207.0" y="165.62089752176826">B</text>
<path d=" M 265.0 197.62089752176826 L 271.0 203.62089752176826 M 265.0 203.62089752176826 L 271.0 197.62089752176826" fill="none" stroke="#E50000" stroke-width="1.375"/> 
<text fill="#000000" font-size="11.2" x="275.0" y="216.62089752176826">C</text>
<polyline fill="none" points="200.0,234.62089752176826 200.0,149.62089752176826" stroke="#000000" stroke-dashoffset="0.0" stroke-width="1"/> 
<polyline fill="none" points="200.0,234.62089752176826 268.0,200.62089752176826" stroke="#000000" stroke-dashoffset="0.0" stroke-width="1"/> 
<polyline fill="none" points="200.0,149.62089752176826 268.0,200.62089752176826" stroke="#000000" stroke-dashoffset="0.0" stroke-width="1"/> 
<polyline fill="none" points="325.8104487608842,401.2417950435365 125.18955123911589,0" stroke="#000000" stroke-dashoffset="0.0" stroke-width="1"/> 
<polyline fill="none" points="0,111.01409977178929 468.0,400.2540065067401" stroke="#15B01A" stroke-dashoffset="0.0" stroke-width="1"/> 
<polyline fill="none" points="249.91002495549313,401.2417950435365 286.0899750445069,0" stroke="#15B01A" stroke-dashoffset="0.0" stroke-width="1"/> 
<rect fill="#E50000" height="6.0" width="6.0" x="258.5065778087482" y="269.63405313926467"/> 
<text fill="#000000" font-size="11.2" x="268.5065778087482" y="288.63405313926467">S</text></svg>