
<svg height="401.2417950435365" version="1.1" width="468.0" xmlns="http://www.w3.org/2000/svg">
<rect fill="#FFFFFF" fill-opacity="0.6000000238418579" height="29.564634963161424" stroke="#FFFFFF" stroke-width="2" width="234.12926992632282" x="96.0" y="62.620897521768256"/> 
<text fill="#000000" font-size="15.399999999999999" x="102.0" y="80.62089752176826">Snijdende verlengde koorden</text>
<rect fill="#FFFFFF" fill-opacity="0.6000000238418579" height="29.564634963161424" stroke="#FFFFFF" stroke-width="2" width="206.12458137977228" x="96.0" y="96.62089752176826"/> 
<text fill="#000000" font-size="15.399999999999999" x="102.0" y="114.62089752176826">Gelijkvormige driehoeken</text>
<rect fill="#FFFFFF" fill-opacity="0.6000000238418579" height="29.56463496316141" stroke="#FFFFFF" stroke-width="2" width="125.54387139986605" x="96.0" y="130.62089752176826"/> 
<text fill="#000000" font-size="15.399999999999999" x="102.0" y="148.62089752176826">AS:DS = CS:BS</text>
<path d=" M 95.0 197.62089752176826 L 101.0 203.62089752176826 M 95.0 203.62089752176826 L 101.0 197.62089752176826" fill="none" stroke="#E50000" stroke-width="1.375"/> 
<text fill="#000000" font-size="11.2" x="105.0" y="216.62089752176826">A</text>
<path d=" M 163.0 231.62089752176826 L 169.0 237.62089752176826 M 163.0 237.62089752176826 L 169.0 231.62089752176826" fill="none" stroke="#E50000" stroke-width="1.375"/> 
<text fill="#000000" font-size="11.2" x="173.0" y="250.62089752176826">M</text>
<path d=" M 333.0 197.62089752176826 L 339.0 203.62089752176826 M 333.0 203.62089752176826 L 339.0 197.62089752176826" fill="none" stroke="#E50000" stroke-width="1.375"/> 
<path d=" M 322.8 163.62089752176826 L 328.8 169.62089752176826 M 322.8 169.62089752176826 L 328.8 163.62089752176826" fill="none" stroke="#E50000" stroke-width="1.375"/> 
<path d=" M 95.0 333.62089752176826 L 101.0 339.62089752176826 M 95.0 339.62089752176826 L 101.0 333.62089752176826" fill="none" stroke="#E50000" stroke-width="1.375"/> 
<circle cx="166.0" cy="234.62089752176826" fill="none" r="76.02631123499285" stroke="#000000" stroke-dasharray="1 6" stroke-dashoffset="0.0" stroke-width="1"/> 
<rect fill="#E50000" height="6.0" width="6.0" x="231.0" y="197.62089752176826"/> 
<text fill="#000000" font-size="11.2" x="241.0" y="216.62089752176826">B</text>
<rect fill="#E50000" height="6.0" width="6.0" x="136.29595921717797" y="302.80301750894887"/> 
<text fill="#000000" font-size="11.2" x="146.29595921717797" y="321.80301750894887">D</text>
<rect fill="#E50000" height="6.0" width="6.0" x="238.8383947676553" y="226.27881187426428"/> 
<text fill="#000000" font-size="11.2" x="248.8383947676553" y="245.27881187426428">C</text>
<polyline fill="none" points="11.40799732083049,401.2417950435365 468.0,60.50149453669362" stroke="#000000" stroke-dashoffset="0.0" stroke-width="1"/> 
<polyline fill="none" points="0,200.62089752176826 468.0,200.62089752176826" stroke="#000000" stroke-dashoffset="0.0" stroke-width="1"/> 
<rect fill="#E50000" height="6.0" width="6.0" x="277.24" y="197.62089752176826"/> 
<text fill="#000000" font-size="11.2" x="287.24" y="216.62089752176826">S</text>
<path d=" M 241.8383947676553 229.27881187426428 A 76.02631123499282 76.02631123499282 0 0 0 233.99999999999997 200.62089752176826" fill="none" stroke="#15B01A" stroke-dashoffset="0.0" stroke-width="1"/> 
<polyline fill="none" points="139.29595921717797,305.80301750894887 234.0,200.62089752176826" stroke="#000000" stroke-dashoffset="0.0" stroke-width="1"/> 
<polyline fill="none" points="98.0,200.62089752176826 241.8383947676553,229.27881187426428" stroke="#000000" stroke-dashoffset="0.0" stroke-width="1"/> </svg>