
<svg height="401.2417950435365" version="1.1" width="468.0" xmlns="http://www.w3.org/2000/svg">
<path d=" M 147.15 184.62089752176826 L 153.15 190.62089752176826 M 147.15 190.62089752176826 L 153.15 184.62089752176826" fill="none" stroke="#E50000" stroke-width="1.375"/> 
<text fill="#000000" font-size="11.2" x="157.15" y="203.62089752176826">R</text>
<path d=" M 199.15 184.62089752176826 L 205.15 190.62089752176826 M 199.15 190.62089752176826 L 205.15 184.62089752176826" fill="none" stroke="#E50000" stroke-width="1.375"/> 
<text fill="#000000" font-size="11.2" x="209.15" y="203.62089752176826">Q</text>
<polyline fill="none" points="150.15,187.62089752176826 202.15,187.62089752176826" stroke="#000000" stroke-dashoffset="0.0" stroke-width="3"/> 
<circle cx="150.15" cy="187.62089752176826" fill="none" r="52.0" stroke="#15B01A" stroke-dashoffset="0.0" stroke-width="1"/> 
<circle cx="202.15" cy="187.62089752176826" fill="none" r="52.0" stroke="#15B01A" stroke-dashoffset="0.0" stroke-width="1"/> 
<rect fill="#E50000" height="6.0" width="6.0" x="173.15" y="229.65421851855905"/> 
<text fill="#000000" font-size="11.2" x="183.15" y="248.65421851855905">P</text>
<polyline fill="none" points="176.15,232.65421851855905 202.15,187.62089752176826" stroke="#000000" stroke-dashoffset="0.0" stroke-width="3"/> 
<polyline fill="none" points="176.15,232.65421851855905 150.15,187.62089752176826" stroke="#000000" stroke-dashoffset="0.0" stroke-width="3"/> 
<path d=" M 161.15 175.12089752176826 L 167.15 181.12089752176826 M 161.15 181.12089752176826 L 167.15 175.12089752176826" fill="none" stroke="#E50000" stroke-width="1.375"/> 
<rect fill="#E50000" height="6.0" width="6.0" x="173.15" y="166.97804037891112"/> 
<text fill="#000000" font-size="11.2" x="183.15" y="185.97804037891112">X</text>
<polyline fill="none" points="426.64395424260584,0 0,289.50839752176825" stroke="#000000" stroke-dasharray="1 6" stroke-dashoffset="0.0" stroke-width="1"/> 
<polyline fill="none" points="0,50.447683236053976 468.0,368.0191118074826" stroke="#000000" stroke-dasharray="1 6" stroke-dashoffset="0.0" stroke-width="1"/> 
<path d=" M 95.15 205.42089752176827 L 101.15 211.42089752176827 M 95.15 211.42089752176827 L 101.15 205.42089752176827" fill="none" stroke="#E50000" stroke-width="1.375"/> 
<rect fill="#E50000" height="6.0" width="6.0" x="139.34249000045202" y="219.15077951956852"/> 
<text fill="#000000" font-size="11.2" x="149.34249000045202" y="238.15077951956852">Y</text>
<polyline fill="none" points="101.84843633928796,401.2417950435365 192.57273499859326,0" stroke="#000000" stroke-dasharray="1 6" stroke-dashoffset="0.0" stroke-width="1"/> 
<polyline fill="none" points="0,177.92730193413982 468.0,323.3272279148846" stroke="#000000" stroke-dasharray="1 6" stroke-dashoffset="0.0" stroke-width="1"/> 
<rect fill="#E50000" height="6.0" width="6.0" x="207.22032628276352" y="219.30251657143043"/> 
<text fill="#000000" font-size="11.2" x="217.22032628276352" y="238.30251657143043">Z</text>
<polyline fill="none" points="251.85905024211237,401.2417950435365 158.49108493327802,0" stroke="#000000" stroke-dasharray="1 6" stroke-dashoffset="0.0" stroke-width="1"/> 
<polyline fill="none" points="0,286.1744661044828 468.0,143.98045037804332" stroke="#000000" stroke-dasharray="1 6" stroke-dashoffset="0.0" stroke-width="1"/> 
<rect fill="#E50000" height="6.0" width="6.0" x="343.51763301700095" y="282.5846484975903"/> 
<text fill="#000000" font-size="11.2" x="353.51763301700095" y="301.5846484975903">C</text>
<rect fill="#E50000" height="6.0" width="6.0" x="172.7766256310496" y="71.28330857302855"/> 
<text fill="#000000" font-size="11.2" x="182.7766256310496" y="90.28330857302855">A</text>
<rect fill="#E50000" height="6.0" width="6.0" x="5.896698143612525" y="280.4713523528883"/> 
<text fill="#000000" font-size="11.2" x="15.896698143612525" y="299.4713523528883">B</text>
<polyline fill="none" points="175.7766256310496,74.28330857302855 8.896698143612525,283.4713523528883" stroke="#E50000" stroke-dashoffset="0.0" stroke-width="1"/> 
<polyline fill="none" points="175.7766256310496,74.28330857302855 346.51763301700095,285.58464849759036" stroke="#E50000" stroke-dashoffset="0.0" stroke-width="1"/> 
<polyline fill="none" points="8.896698143612525,283.4713523528883 346.51763301700095,285.5846484975903" stroke="#E50000" stroke-dashoffset="0.0" stroke-width="1"/> </svg>